<?xml version="1.0" encoding="UTF-8"?><svg id="b" xmlns="http://www.w3.org/2000/svg" viewBox="0 0 222 206"><path d="M90.67,6.25c-1.75,0-3.46,.61-4.82,1.75L9.16,72.35c-2.46,2.06-3.33,5.46-2.18,8.45l38.8,100.39c.91,2.35,2.93,4.08,5.38,4.62l85.24,18.75c.54,.12,1.08,.18,1.61,.18,1.97,0,3.89-.78,5.32-2.21l74.99-75.35c2.04-2.05,2.72-5.09,1.75-7.81L186.04,23.85c-.93-2.62-3.25-4.51-6-4.91L91.74,6.33c-.35-.05-.71-.08-1.06-.08h0Z" fill="#231f20" stroke="#231f20" stroke-linejoin="round"/><path d="M85.67,1.25c-1.75,0-3.46,.61-4.82,1.75L4.16,67.35c-2.46,2.06-3.33,5.46-2.18,8.45l38.8,100.39c.91,2.35,2.93,4.08,5.38,4.62l85.24,18.75c.54,.12,1.08,.18,1.61,.18,1.97,0,3.89-.78,5.32-2.21l74.99-75.35c2.04-2.05,2.72-5.09,1.75-7.81L181.04,18.85c-.93-2.62-3.25-4.51-6-4.91L86.74,1.33c-.35-.05-.71-.08-1.06-.08h0Z" fill="#f9f4da" stroke="#231f20" stroke-linejoin="round"/><g><g><polyline points="40.87 130.97 133.03 192.25 47.78 173.49 40.87 130.97" fill="#f97428" stroke="#231f20" stroke-linejoin="round"/><polygon points="71.34 21.37 150.82 95.6 40.87 130.97 71.34 21.37" fill="#f9b728" stroke="#231f20" stroke-linecap="round" stroke-linejoin="round"/><polygon points="40.87 130.97 8.98 73.1 71.34 21.37 40.87 130.97" fill="#f9b728" stroke="#231f20" stroke-linecap="round" stroke-linejoin="round"/><polygon points="150.82 95.6 71.34 21.37 173.98 21.37 150.82 95.6 208.02 116.9 173.98 21.37 150.82 95.6" fill="#f9b728" stroke="#231f20" stroke-linecap="round" stroke-linejoin="round"/><polyline points="71.34 21.37 85.67 8.75 173.98 21.37 71.34 21.37" fill="#f9b728" stroke="#231f20" stroke-linecap="round" stroke-linejoin="round"/><polygon points="8.98 73.1 47.78 173.49 40.87 130.97 8.98 73.1" fill="#f97428" stroke="#231f20" stroke-linejoin="round"/><polygon points="40.87 130.97 133.03 192.25 150.82 95.6 40.87 130.97" fill="#f9b728" stroke="#231f20" stroke-linecap="round" stroke-linejoin="round"/><polygon points="150.82 95.6 133.03 192.25 208.02 116.9 150.82 95.6" fill="#f9b728" stroke="#231f20" stroke-linecap="round" stroke-linejoin="round"/></g><g><ellipse cx="88.43" cy="81.1" rx="23.03" ry="8.76" transform="translate(-20.95 31.77) rotate(-18.25)" fill="none" stroke="#231f20" stroke-linecap="round" stroke-linejoin="round"/><ellipse cx="88.43" cy="81.1" rx="8.76" ry="23.03" transform="translate(-30.96 93.06) rotate(-48.25)" fill="none" stroke="#231f20" stroke-linecap="round" stroke-linejoin="round"/><ellipse cx="88.43" cy="81.1" rx="23.03" ry="8.76" transform="translate(-8.99 151.16) rotate(-78.25)" fill="none" stroke="#231f20" stroke-linecap="round" stroke-linejoin="round"/><circle cx="88.43" cy="81.1" r="3.26" fill="#231f20"/></g><path d="M42.99,82.06c-.2-.08-.53-.2-.89-.3-.29-.08-.64-.15-.91-.22-2.7-.74-2.99-3.84-2.96-7.16,0-3.17-.05-4.78-1.3-5.12-.85-.23-1.7,.58-2.23,2.51-.58,2.12-.09,3.15,.79,3.4,.34,.09,.6,.14,.99,.22-.17,.47-.4,1.27-.63,2.08-.23,.83-.45,1.7-.56,2.25-.4-.08-.77-.13-1.1-.22-2.38-.65-3.53-3.55-2.16-8.53,1.39-5.07,3.8-6.69,5.92-6.11,2.79,.76,2.94,3.68,2.9,7.43-.04,2.7-.02,3.96,.66,4.38,.44-1.62,.93-3.46,1.25-4.63,.53-1.93,1.01-3.67,1.37-5.21,.42,.14,1.04,.31,1.63,.47,.5,.14,.92,.25,1.19,.3l-3.96,14.46Z" fill="#231f20"/><path d="M106.09,139.33c-.67,.1-1.28,.18-1.82,.18-2.34-.11-3.42-1.18-4.19-3.5-1.21-3.67,1.23-6.87,7-8.77,5.77-1.9,9.66-.79,10.87,2.88,.77,2.33,.48,3.85-1.28,5.31-.44,.33-.97,.65-1.57,.94l.05,.16c.76-.1,1.42-.1,2-.08,1.93,.15,3.2,1.25,3.9,3.36,1.17,3.56-.78,6.57-6.99,8.61-6.16,2.03-9.54,.78-10.71-2.78-.69-2.11-.33-3.75,1.14-5.02,.46-.36,1-.75,1.66-1.12l-.05-.16Zm-.65-4.18c.44,1.34,1.74,1.79,4.56,.86s3.57-2.06,3.13-3.4c-.5-1.53-1.66-2-4.59-1.04-2.93,.96-3.61,2.04-3.1,3.57Zm10.22,5.7c-.46-1.4-1.67-1.85-4.38-.95-2.71,.89-3.44,1.98-2.98,3.38,.5,1.53,1.91,1.74,4.37,.93,2.46-.81,3.5-1.82,2.99-3.35Z" fill="#231f20"/><path d="M179.22,77.11c.58,1.93,.55,3.94-.07,5.89-1.24,3.88-2.85,4.14-5.11,1.47-2.55-3.01-3.47-6.98-2.13-11.15,1.42-4.44,3.86-5.38,8.7,.34,3.64,4.3,5.3,9.34,3.75,14.19-1.35,4.23-3.25,4.85-5.78,1.86l-.35-.42c.23-.5,.41-1.07,.65-1.81,.24-.76,.45-1.42,.56-1.97l.24,.28c.96,1.14,1.76,1.2,2.37-.71,.68-2.14,.33-4.2-1.41-6.3-.39-.51-.86-1.12-1.33-1.77l-.08,.11Zm-3.98,3.32c1.01,1.19,1.72,1.04,2.28-.7,.56-1.75,.49-3.27-.57-4.52-1.19-1.4-2.08-1.1-2.64,.67-.56,1.75-.19,3.23,.93,4.55Z" fill="#231f20"/><g><path d="M127.07,38c2.48-2.55,3.66-4.02,4.44-4.94,1.19,.45,2.47,.65,3.59,.61,.28,.31,.61,.63,.91,.92,.35,.34,.61,.59,.85,.79-1.3,1.23-3.54,3.49-6.14,6.17-2.57,2.65-4.45,4.61-6,6.31-.76-.81-1.3-1.33-1.8-1.82-.54-.52-1.15-1.08-1.99-1.84,1.66-1.63,3.55-3.54,6.14-6.2Z" fill="#231f20"/><path d="M143.66,55.57c.63,.58,1.13,1.06,1.64,1.53-.47,.41-.93,.88-1.36,1.33-.49,.46-.91,.93-1.32,1.43l-1.56-1.55c-.97,1.03-1.8,1.97-2.61,2.9l-3.83-3.73c.83-.75,1.91-1.74,2.88-2.7l-2.24-2.18c-1.56-1.51-3.64-3.48-5.48-5.23,1.7-1.19,9.26-7.37,10.53-8.63l3.76,3.66c-1.29,1.07-5.4,3.92-7.77,5.98,.93,.94,2.06,2.04,3.82,3.75,1.63-1.68,5.29-5.51,6.71-7.04l3.67,3.57c-1.8,1.71-3.54,3.52-6.09,6.15l-.74,.77Z" fill="#231f20"/></g><g><path d="M82,172.73c-.7,.91-.94,1.5-1.12,1.85-.93-.58-1.84-1.04-2.56-1.31-.29-.26-.63-.54-.92-.8-.35-.3-.61-.52-.84-.71,.41-.41,1.05-1.2,1.79-2.16,.73-.94,1.24-1.65,1.64-2.28,.79,.69,1.33,1.15,1.83,1.58,.54,.46,1.13,.96,1.96,1.65-.49,.56-1.04,1.23-1.78,2.18Z" fill="#231f20"/><path d="M71.33,159.77c4.19,3.59,5.84,6.36,4.64,7.91-1.2,1.55-4.22,.08-8.21-3.33-3.97-3.4-6.04-6.29-4.84-7.84,1.2-1.55,4.22-.32,8.41,3.27Zm.98,4.71c.78-1.01-.06-2.19-1.82-3.7-1.76-1.51-3.02-2.11-3.79-1.11-.74,.96,.1,2.14,1.84,3.63,1.76,1.51,3.02,2.15,3.77,1.18Z" fill="#231f20"/></g><g><path d="M168.23,120.63c3.48-1.12,5.35-1.92,6.55-2.38,.26,1.1,.77,2.02,1.41,2.61-.11,.46-.2,.96-.29,1.41-.1,.54-.17,.93-.21,1.26-1.73,.48-4.84,1.46-8.5,2.65-3.61,1.17-6.28,2.06-8.54,2.87,.27-1.22,.43-2.04,.57-2.8,.15-.81,.3-1.71,.48-2.93,2.26-.68,4.89-1.5,8.53-2.68Z" fill="#231f20"/><path d="M165.54,134.92c1,.84,1.25,2.66,.75,5.33-1,5.31-2.96,7.96-6.17,8.99-3.61,1.17-5.32-.97-4.25-6.68,1.14-6.07,4.05-10.58,10.91-12.8,5.16-1.67,7.95,.31,6.7,6.94-1.08,5.79-3.37,9.2-6.95,10.36l-.5,.16c.21-.78,.36-1.57,.55-2.58,.2-1.04,.36-1.94,.42-2.59l.34-.11c1.36-.44,2.37-1.58,2.86-4.2,.55-2.92-.19-4.22-2.66-3.47-.56,.13-1.23,.29-1.92,.44l-.08,.21Zm-4.49,8.92c1.43-.46,2.3-1.67,2.75-4.06,.45-2.39,.15-3.64-1.35-3.15-1.68,.54-2.75,2.16-3.2,4.57-.45,2.39,.22,3.15,1.81,2.63Z" fill="#231f20"/></g></g></svg>