<?xml version="1.0" encoding="UTF-8"?><svg id="b" xmlns="http://www.w3.org/2000/svg" viewBox="0 0 206 224"><path d="M176.72,54.75v-17.6c2.28-1.77,3.74-4.53,3.74-7.62V15.75c0-5.32-4.33-9.64-9.64-9.64h-34.25c-5.32,0-9.64,4.33-9.64,9.64v13.78c0,3.1,1.47,5.86,3.75,7.62v17.6c-11.77,5.93-20.68,16.14-25.17,28.14-4.5-12-13.4-22.2-25.17-28.14v-17.6c2.28-1.77,3.75-4.53,3.75-7.62V15.75c0-5.32-4.33-9.64-9.64-9.64H40.18c-5.32,0-9.64,4.33-9.64,9.64v13.78c0,3.1,1.47,5.86,3.74,7.62v17.6c-17.3,8.72-28.43,26.66-28.43,45.98v107.65c0,8.01,6.51,14.52,14.52,14.52H94.24c4.54,0,8.6-2.1,11.26-5.38,2.66,3.28,6.72,5.38,11.26,5.38h73.87c8.01,0,14.52-6.51,14.52-14.52V100.73c0-19.32-11.13-37.26-28.43-45.98Z" fill="#231f20" stroke="#231f20" stroke-linejoin="round"/><path d="M171.72,49.75v-17.6c2.28-1.77,3.74-4.53,3.74-7.62V10.75c0-5.32-4.33-9.64-9.64-9.64h-34.25c-5.32,0-9.64,4.33-9.64,9.64v13.78c0,3.1,1.47,5.86,3.75,7.62v17.6c-11.77,5.93-20.68,16.14-25.17,28.14-4.5-12-13.4-22.2-25.17-28.14v-17.6c2.28-1.77,3.75-4.53,3.75-7.62V10.75c0-5.32-4.33-9.64-9.64-9.64H35.18c-5.32,0-9.64,4.33-9.64,9.64v13.78c0,3.1,1.47,5.86,3.74,7.62v17.6C11.98,58.47,.85,76.41,.85,95.73v107.65c0,8.01,6.51,14.52,14.52,14.52H89.24c4.54,0,8.6-2.1,11.26-5.38,2.66,3.28,6.72,5.38,11.26,5.38h73.87c8.01,0,14.52-6.51,14.52-14.52V95.73c0-19.32-11.13-37.26-28.43-45.98Z" fill="#f9f4da" stroke="#231f20" stroke-linejoin="round"/><g><g><path d="M67.33,50.68V24.15c0-3.6-2.92-6.52-6.52-6.52h-17.01c-3.6,0-6.52,2.92-6.52,6.52v26.52c0,2.5-1.43,4.78-3.68,5.86-14.6,7.02-24.75,21.98-24.75,39.19v107.65c0,3.6,2.92,6.52,6.52,6.52H89.24c3.6,0,6.52-2.92,6.52-6.52V95.73c0-17.21-10.14-32.17-24.75-39.19-2.25-1.08-3.68-3.36-3.68-5.86Z" fill="#ed203d" stroke="#231f20" stroke-linecap="round" stroke-linejoin="round"/><rect x="37.31" y="21.1" width="30.02" height="26.31" fill="#f97428" stroke="#231f20" stroke-linejoin="round"/><path d="M89.24,204.51H15.37c-3.6,0-6.52-2.92-6.52-6.52v5.39c0,3.6,2.92,6.52,6.52,6.52H89.24c3.6,0,6.52-2.92,6.52-6.52v-5.39c0,3.6-2.92,6.52-6.52,6.52Z" fill="#f97428" stroke="#231f20" stroke-linejoin="round"/><rect x="33.53" y="9.1" width="37.54" height="17.07" rx="1.64" ry="1.64" fill="#f97428" stroke="#231f20" stroke-linejoin="round"/><rect x="8.89" y="97.31" width="86.86" height="85.62" fill="#f9b728" stroke="#231f20" stroke-linecap="round" stroke-linejoin="round"/><g><path d="M35.97,97.11c-1.4,0-2.79,.37-4,1.07-5.27,3.01-7.62,9.77-5.68,16.42,.41,1.4,.96,2.67,1.52,3.81-1.03,.46-1.96,1.13-2.73,1.99-5.82,6.56-6.73,16.71-2.22,24.26-3.67,1.43-5.81,5.37-4.92,9.25,2.13,9.35,7.1,17.62,13.98,23.28,3.25,2.68,6.89,4.75,10.8,6.17,3.73,1.35,7.96,2.15,12.27,2.31,.32,.04,.64,.06,.96,.06,.2,0,.39,0,.59-.02,.03,0,.05,0,.08,0,11.81,0,22.12-4.49,28.3-12.31,4.66-5.9,6.98-13.65,6.36-21.27-.88-10.82-7.01-19.17-13.75-27.48-1.54-1.89-3.8-2.96-6.21-2.96h-.27l-.24,.02c-1.2,.07-2.35,.42-3.38,.99-1.81-2.14-3.99-3.95-6.47-5.29-.96-.52-2.05-.85-3.17-.94-2.23-3.61-5.37-6.31-7.95-8.27l-.94-.71c-2.49-1.87-4.82-3.63-5.54-5.39-.88-2.14-2.62-3.8-4.78-4.55l-.05-.02-.05-.02c-.82-.27-1.68-.41-2.54-.41h0Z" fill="#231f20" stroke="#231f20" stroke-linejoin="round"/><path d="M33.02,94.51c-1.4,0-2.79,.37-4,1.07-5.27,3.01-7.62,9.77-5.68,16.42,.41,1.4,.96,2.67,1.52,3.81-1.03,.46-1.96,1.13-2.73,1.99-5.82,6.56-6.73,16.71-2.22,24.26-3.67,1.43-5.81,5.37-4.92,9.25,2.13,9.35,7.1,17.62,13.98,23.28,3.25,2.68,6.89,4.75,10.8,6.17,3.73,1.35,7.96,2.15,12.27,2.31,.32,.04,.64,.06,.96,.06,.2,0,.39,0,.59-.02,.03,0,.05,0,.08,0,11.81,0,22.12-4.49,28.3-12.31,4.66-5.9,6.98-13.65,6.36-21.27-.88-10.82-7.01-19.17-13.75-27.48-1.54-1.89-3.8-2.96-6.21-2.96h-.27l-.24,.02c-1.2,.07-2.35,.42-3.38,.99-1.81-2.14-3.99-3.95-6.47-5.29-.96-.52-2.05-.85-3.17-.94-2.23-3.61-5.37-6.31-7.95-8.27l-.94-.71c-2.49-1.87-4.82-3.63-5.54-5.39-.88-2.14-2.62-3.8-4.78-4.55l-.05-.02-.05-.02c-.82-.27-1.68-.41-2.54-.41h0Z" fill="#f9f4da" stroke="#231f20" stroke-linejoin="round"/><g><path d="M42.5,173.25c-3.04-1.1-5.91-2.75-8.45-4.83-5.66-4.66-9.58-11.51-11.26-18.89,.83,2.17,3.18,3.56,5.36,3.18s3.98-2.51,4.1-4.85c.2-3.84-3.38-6.51-5.37-9.73-2.81-4.53-2.27-11.06,1.23-15.01-.77,2.04,1.17,4.44,3.24,4.39,2.08-.05,3.81-1.98,4.27-4.12,.46-2.14-.12-4.4-1.04-6.37-1.14-2.45-2.81-4.64-3.57-7.25-.76-2.61-.27-5.96,2-7.26,1.69,4.18,5.56,6.81,9.05,9.47s7.06,6.03,7.58,10.55c.3,2.64-.5,5.3-.36,7.96s1.86,5.64,4.37,5.48c2.82-4.01,3.05-9.87,.56-14.12,5.47,2.96,8.82,9.8,7.94,16.24-.28,2.05-.94,4.05-.97,6.13-.02,2.07,.8,4.36,2.61,5.17,2.64,1.17,5.58-1.67,6-4.67s-.78-5.95-1.66-8.84c-.88-2.89-1.38-6.27,.23-8.78,5.5,6.78,11.26,14.19,11.99,23.09,.46,5.59-1.26,11.35-4.66,15.66-7.52,9.51-22.71,11.21-33.2,7.4Z" fill="#ed203d" stroke="#231f20" stroke-linecap="round" stroke-linejoin="round"/><path d="M53.01,175.14s-24.89-6.13-10.78-35.49c0,0,1.79,17.46,11.65,14.24,16.68-5.46,17.97,17.79-.86,21.26Z" fill="#f97428" stroke="#231f20" stroke-linejoin="round"/><path d="M53.94,174.64s-8.29-1.33-1.62-12.85c0,0,10.37,5.25,1.62,12.85Z" fill="#f9b728" stroke="#231f20" stroke-linecap="round" stroke-linejoin="round"/></g></g></g><g><path d="M163.72,50.68V24.15c0-3.6-2.92-6.52-6.52-6.52h-17.01c-3.6,0-6.52,2.92-6.52,6.52v26.52c0,2.5-1.43,4.78-3.68,5.86-14.6,7.02-24.75,21.98-24.75,39.19v107.65c0,3.6,2.92,6.52,6.52,6.52h73.87c3.6,0,6.52-2.92,6.52-6.52V95.73c0-17.21-10.14-32.17-24.75-39.19-2.25-1.08-3.68-3.36-3.68-5.86Z" fill="#0ba65b" stroke="#231f20" stroke-linecap="round" stroke-linejoin="round"/><rect x="133.7" y="21.1" width="30.02" height="26.31" fill="#f97428" stroke="#231f20" stroke-linejoin="round"/><path d="M185.63,204.51H111.76c-3.6,0-6.52-2.92-6.52-6.52v5.39c0,3.6,2.92,6.52,6.52,6.52h73.87c3.6,0,6.52-2.92,6.52-6.52v-5.39c0,3.6-2.92,6.52-6.52,6.52Z" fill="#f97428" stroke="#231f20" stroke-linejoin="round"/><rect x="129.93" y="9.1" width="37.54" height="17.07" rx="1.64" ry="1.64" fill="#f97428" stroke="#231f20" stroke-linejoin="round"/><rect x="105.29" y="97.31" width="86.86" height="85.62" fill="#f9b728" stroke="#231f20" stroke-linecap="round" stroke-linejoin="round"/><g><path d="M134.89,184.74c-2.01,0-4-.31-5.93-.93-5.4-1.72-7.94-4.87-9.11-7.2-1.63-3.24-2.6-8.63,2.04-15.92,1.14-1.78,2.13-3.28,3.04-4.64,2.74-4.12,4.25-6.37,6.42-11.68,1.39-3.41,1.9-7.45,2.43-11.72,.66-5.25,1.4-11.19,4.02-16.77,1.74-3.7,3.94-6.42,6.73-8.31,2.22-1.5,4.86-2.45,7.69-2.8l.05-2.77c.07-3.34,2.39-6.13,5.64-6.81,10.73-2.22,15.35,3.79,16.84,6.49,1.52,2.75,2.62,6.98,.58,12.62,1.54,1.84,2.87,3.93,3.97,6.23h0c6.38,13.42-5.78,36.83-16.62,47.89-11.22,11.44-19.53,16.32-27.79,16.32Z" fill="#231f20" stroke="#231f20" stroke-linejoin="round"/><path d="M132.77,182.85c-2.01,0-4-.31-5.93-.93-5.4-1.72-7.94-4.87-9.11-7.2-1.63-3.24-2.6-8.63,2.04-15.92,1.14-1.78,2.13-3.28,3.04-4.64,2.74-4.12,4.25-6.37,6.42-11.68,1.39-3.41,1.9-7.45,2.43-11.72,.66-5.25,1.4-11.19,4.02-16.77,1.74-3.7,3.94-6.42,6.73-8.31,2.22-1.5,4.86-2.45,7.69-2.8l.05-2.77c.07-3.34,2.39-6.13,5.64-6.81,10.73-2.22,15.35,3.79,16.84,6.49,1.52,2.75,2.62,6.98,.58,12.62,1.54,1.84,2.87,3.93,3.97,6.23h0c6.38,13.42-5.78,36.83-16.62,47.89-11.22,11.44-19.53,16.32-27.79,16.32Z" fill="#f9f4da" stroke="#231f20" stroke-linejoin="round"/><g><path d="M170.78,121.69c-4.29-9.02-11.84-10.83-15.01-11.52-3.18-.69-6.7-.45-9.39,1.38-1.94,1.31-3.3,3.34-4.3,5.46-4.11,8.74-2.65,19.22-6.3,28.16-3.22,7.89-5.46,10.26-10.04,17.45-1.71,2.68-3.12,6.09-1.69,8.93,.95,1.88,2.94,3,4.94,3.64,7.81,2.5,16.22-3.12,26.51-13.6,10.51-10.71,19.57-30.86,15.28-39.89Z" fill="#0ba95b" stroke="#231f20" stroke-linejoin="round"/><ellipse cx="159.83" cy="117.16" rx="3.51" ry="9.28" transform="translate(-21.55 197) rotate(-60)" fill="#0ba95b" stroke="#231f20" stroke-linejoin="round"/><path d="M166.44,103.22c-1.95-3.53-5.86-3.67-9.2-2.98-.02,1.04-.04,2.07-.06,3.11,2.02-.58,4.27-.81,5.63,.43,4.1,3.76-4.03,12.85-4.03,12.85l2.46,1.59s8.61-8.86,5.21-15.01Z" fill="#0ba95b" stroke="#231f20" stroke-linejoin="round"/></g></g></g></g></svg>