<svg xmlns="http://www.w3.org/2000/svg" id="b" viewBox="0 0 40 40"><path fill="#f6f1d7" fill-rule="evenodd" d="M20.02.5C9.04.5.17 9.44.17 20.49c0 8.84 5.68 16.32 13.57 18.97.99.2 1.35-.43 1.35-.96 0-.46-.03-2.05-.03-3.71-5.52 1.19-6.67-2.38-6.67-2.38-.89-2.32-2.2-2.91-2.2-2.91-1.81-1.22.13-1.22.13-1.22 2 .13 3.06 2.05 3.06 2.05 1.77 3.05 4.63 2.18 5.78 1.66.16-1.29.69-2.18 1.25-2.68-4.4-.46-9.04-2.18-9.04-9.86 0-2.18.79-3.97 2.04-5.36-.2-.5-.89-2.55.2-5.3 0 0 1.68-.53 5.45 2.05a18.933 18.933 0 0 1 9.92 0c3.78-2.58 5.45-2.05 5.45-2.05 1.08 2.75.39 4.8.2 5.3 1.28 1.39 2.04 3.18 2.04 5.36 0 7.68-4.63 9.37-9.07 9.86.72.63 1.35 1.82 1.35 3.71 0 2.68-.03 4.83-.03 5.49 0 .53.36 1.16 1.35.96 7.89-2.65 13.57-10.13 13.57-18.97C39.87 9.44 30.97.51 20.03.51Z"/></svg>