<svg xmlns="http://www.w3.org/2000/svg" id="b" viewBox="0 0 546 80"><g fill="#f088a0"><path d="M256.49 3.19c-2.88 10.54-5.77 21.49-9.75 37.3-3.88 15.82-6.47 26.46-8.85 37.3h-31.04c1.89-6.86 4.38-16.51 6.47-24.87-2.09-.1-4.48-.1-6.86-.1s-4.68 0-6.86.1c-2.09 8.36-4.48 18-5.97 24.87h-30.94c2.98-10.74 5.67-21.49 9.55-37.3 3.98-15.82 6.67-26.76 9.05-37.3h30.94c-1.89 6.76-4.38 16.61-6.57 25.17 2.19.1 4.48.1 6.86.1s4.77 0 6.96-.1c2.09-8.55 4.48-18.4 5.97-25.17h31.04ZM281.86 79.08c-27.65 0-35.11-12.83-28.95-37.8 5.87-23.67 18-28.55 40.19-28.55 26.16 0 36.21 9.55 29.84 35.21-5.87 23.18-17.9 31.13-41.08 31.13Zm8.85-46.95c-4.58 0-7.46 2.39-9.85 11.94-2.59 10.44-1 13.43 3.98 13.43 4.48 0 7.46-2.88 9.75-12.43 2.59-10.34.9-12.93-3.88-12.93ZM356.97 79.08c-27.65 0-35.11-12.83-28.95-37.8 5.87-23.67 18-28.55 40.19-28.55 26.16 0 36.21 9.55 29.84 35.21-5.87 23.18-17.9 31.13-41.08 31.13Zm8.85-46.95c-4.58 0-7.46 2.39-9.85 11.94-2.59 10.44-1 13.43 3.98 13.43 4.48 0 7.46-2.88 9.75-12.43 2.59-10.34.9-12.93-3.88-12.93ZM482.91 13.93c-6.57 10.74-13.43 27.36-27.16 31.83 10.84 3.78 9.55 18 11.34 32.03h-26.36c-3.08 0-3.88-.8-4.18-3.18-.99-8.06-2.19-16.71-4.28-21.29h-.7c-2.29 9.15-4.18 16.51-5.87 24.47h-29.64c3.18-11.94 6.86-26.86 10.64-41.98 3.18-12.63 6.07-24.17 8.55-35.01h29.74c-3.28 11.34-5.87 22.38-9.95 38.79l-.3 1.09h.6c2.29-3.38 4.67-6.86 6.47-9.65 4.87-6.86 8.46-13.23 10.64-17.11h30.44ZM509.37 60.09c1.09-3.98-1.29-5.47-10.84-7.16-17.11-2.88-20.89-9.45-17.51-22.88 3.18-13.03 12.83-17.31 34.32-17.31 27.16 0 32.33 7.16 29.64 17.91-.3 1.39-.8 2.79-1.19 4.28-3.68-.4-9.85-.6-15.22-.6-3.38 0-6.47 0-8.36.2.1-.5.2-.99.3-1.39.9-3.38 0-5.07-4.67-5.07-3.98 0-5.67 1-6.17 3.08-.8 3.48.5 5.07 10.84 7.06 16.91 3.38 21.49 8.65 17.81 23.28-3.18 12.83-12.53 17.61-34.82 17.61-26.66 0-32.63-6.86-29.74-18.5.4-1.39.9-3.08 1.39-4.67 3.68.3 8.06.7 14.92.7 3.18 0 6.07-.1 8.26-.2-.1.5-.3 1-.4 1.49-.89 3.58.4 5.47 5.27 5.47 4.08 0 5.57-.99 6.17-3.28Z"/></g><g fill="#f9f4da"><path d="M54.12 30.93c-1.72 6.43-3.29 12.46-5.88 23.04-2.59 10.26-4.47 17.86-5.88 24.21H31.08c.78-3.06 1.49-5.33 2.27-8.23l-.31-.08c-4.31 6.11-10.58 9.09-17.79 9.09-11.83 0-16.92-8.38-14.1-19.43 1.49-6.11 2.35-8.85 3.37-13.16 1.41-5.56 2.66-10.5 3.6-15.44h11.36c-1.96 7.13-4.31 16.3-7.21 27.97-1.8 7.21.94 11.36 8.31 11.36s13.71-3.92 15.98-13.09c4-15.98 5.25-21.47 6.35-26.25h11.2ZM88.45 66.04c1.1-4.31-1.18-6.19-11.91-7.91-14.5-2.43-17.24-8.15-15.28-16.22 2.04-8.07 8.7-11.99 22.41-11.99 16.22 0 21.78 5.56 19.59 14.57-.23.71-.39 1.33-.63 2.04-1.25-.08-3.29-.16-5.25-.16s-3.68.08-4.7.08c0-.23.23-.78.23-1.02 1.25-4.78-1.25-6.97-10.03-6.97-7.44 0-10.66 1.57-11.44 4.47-.86 3.6.86 5.56 11.83 7.44 14.1 2.51 17.71 7.13 15.36 16.61-1.96 7.76-8.07 12.22-22.88 12.22-17.79 0-22.8-6.27-20.53-15.04.16-.63.47-1.25.63-1.96 1.25.16 3.06.24 5.17.24 1.8 0 3.6 0 4.86-.16-.08.39-.24.71-.31 1.02-1.1 4.78 1.72 7.29 11.13 7.29 7.6 0 10.97-1.33 11.75-4.54ZM155.21 50.21c-.71 2.9-1.41 5.33-1.96 7.13-3.84-.08-10.66-.08-18.57-.08-5.72 0-11.36 0-15.59-.08-1.65 9.87 2.43 13.95 10.81 13.95 7.91 0 10.97-3.29 12.38-8.46 1.33.16 2.9.24 4.94.24s3.53-.08 4.86-.24c-2.19 9.72-7.6 16.53-23.19 16.53s-23.35-9.48-19.04-26.56c3.84-15.28 13.79-22.72 27.35-22.72 16.3 0 20.61 9.79 18.02 20.29Zm-10.26 1.1c.24-.63.39-1.33.63-2.12 1.65-6.82-.63-11.28-9.01-11.28-7.44 0-12.85 3.84-16.06 13.4 7.37.24 18.18.16 24.45 0Z"/></g></svg>