<?xml version="1.0" encoding="UTF-8"?><svg id="b" xmlns="http://www.w3.org/2000/svg" viewBox="0 0 284 180"><path d="M13.12,5.79l-.33,7.49L6.37,159.89l-.33,7.49,7.49,.33,254.85,11.17,7.49,.33,.33-7.49,6.42-146.6,.33-7.49-7.49-.33L20.61,6.12l-7.49-.33h0Z" fill="#231f20" stroke="#231f20" stroke-linejoin="round"/><path d="M8.12,.79l-.33,7.49L1.37,154.89l-.33,7.49,7.49,.33,254.85,11.17,7.49,.33,.33-7.49,6.42-146.6,.33-7.49-7.49-.33L15.61,1.12l-7.49-.33h0Z" fill="#f9f4da" stroke="#231f20" stroke-linejoin="round"/><rect x="11.95" y="14.13" width="255.1" height="146.74" transform="translate(3.96 -6.02) rotate(2.51)" fill="#f088a0" stroke="#231f20" stroke-linecap="round" stroke-linejoin="round"/><rect x="23.69" y="26.26" width="231.78" height="122.4" transform="translate(3.96 -6.03) rotate(2.51)" fill="#f088a0" stroke="#231f20" stroke-linecap="round" stroke-linejoin="round"/><g><rect x="18.34" y="12.57" width="4.62" height="4.62" transform="translate(.67 -.89) rotate(2.51)" fill="#f088a0" stroke="#231f20" stroke-linecap="round" stroke-linejoin="round"/><rect x="26.74" y="12.94" width="4.62" height="4.62" transform="translate(.7 -1.26) rotate(2.51)" fill="#f088a0" stroke="#231f20" stroke-linecap="round" stroke-linejoin="round"/><rect x="35.15" y="13.31" width="4.62" height="4.62" transform="translate(.72 -1.62) rotate(2.51)" fill="#f088a0" stroke="#231f20" stroke-linecap="round" stroke-linejoin="round"/><rect x="43.55" y="13.68" width="4.62" height="4.62" transform="translate(.74 -1.99) rotate(2.51)" fill="#f088a0" stroke="#231f20" stroke-linecap="round" stroke-linejoin="round"/><rect x="51.96" y="14.05" width="4.62" height="4.62" transform="translate(.77 -2.36) rotate(2.51)" fill="#f088a0" stroke="#231f20" stroke-linecap="round" stroke-linejoin="round"/><rect x="60.36" y="14.42" width="4.62" height="4.62" transform="translate(.79 -2.73) rotate(2.51)" fill="#f088a0" stroke="#231f20" stroke-linecap="round" stroke-linejoin="round"/><rect x="68.77" y="14.78" width="4.62" height="4.62" transform="translate(.82 -3.09) rotate(2.51)" fill="#f088a0" stroke="#231f20" stroke-linecap="round" stroke-linejoin="round"/><rect x="77.18" y="15.15" width="4.62" height="4.62" transform="translate(.84 -3.46) rotate(2.51)" fill="#f088a0" stroke="#231f20" stroke-linecap="round" stroke-linejoin="round"/><rect x="85.58" y="15.52" width="4.62" height="4.62" transform="translate(.86 -3.83) rotate(2.51)" fill="#f088a0" stroke="#231f20" stroke-linecap="round" stroke-linejoin="round"/><rect x="93.99" y="15.89" width="4.62" height="4.62" transform="translate(.89 -4.2) rotate(2.51)" fill="#f088a0" stroke="#231f20" stroke-linecap="round" stroke-linejoin="round"/><rect x="102.39" y="16.26" width="4.62" height="4.62" transform="translate(.91 -4.56) rotate(2.51)" fill="#f088a0" stroke="#231f20" stroke-linecap="round" stroke-linejoin="round"/><rect x="110.8" y="16.62" width="4.62" height="4.62" transform="translate(.94 -4.93) rotate(2.51)" fill="#f088a0" stroke="#231f20" stroke-linecap="round" stroke-linejoin="round"/><rect x="119.2" y="16.99" width="4.62" height="4.62" transform="translate(.96 -5.3) rotate(2.51)" fill="#f088a0" stroke="#231f20" stroke-linecap="round" stroke-linejoin="round"/><rect x="127.61" y="17.36" width="4.62" height="4.62" transform="translate(.99 -5.67) rotate(2.51)" fill="#f088a0" stroke="#231f20" stroke-linecap="round" stroke-linejoin="round"/><rect x="136.01" y="17.73" width="4.62" height="4.62" transform="translate(1.01 -6.03) rotate(2.51)" fill="#f088a0" stroke="#231f20" stroke-linecap="round" stroke-linejoin="round"/><rect x="144.42" y="18.1" width="4.62" height="4.62" transform="translate(1.03 -6.4) rotate(2.51)" fill="#f088a0" stroke="#231f20" stroke-linecap="round" stroke-linejoin="round"/><rect x="152.82" y="18.47" width="4.62" height="4.62" transform="translate(1.06 -6.77) rotate(2.51)" fill="#f088a0" stroke="#231f20" stroke-linecap="round" stroke-linejoin="round"/><rect x="161.23" y="18.83" width="4.62" height="4.62" transform="translate(1.08 -7.14) rotate(2.51)" fill="#f088a0" stroke="#231f20" stroke-linecap="round" stroke-linejoin="round"/><rect x="169.63" y="19.2" width="4.62" height="4.62" transform="translate(1.11 -7.51) rotate(2.51)" fill="#f088a0" stroke="#231f20" stroke-linecap="round" stroke-linejoin="round"/><rect x="178.04" y="19.57" width="4.62" height="4.62" transform="translate(1.13 -7.87) rotate(2.51)" fill="#f088a0" stroke="#231f20" stroke-linecap="round" stroke-linejoin="round"/><rect x="186.44" y="19.94" width="4.62" height="4.62" transform="translate(1.15 -8.24) rotate(2.51)" fill="#f088a0" stroke="#231f20" stroke-linecap="round" stroke-linejoin="round"/><rect x="194.85" y="20.31" width="4.62" height="4.62" transform="translate(1.18 -8.61) rotate(2.51)" fill="#f088a0" stroke="#231f20" stroke-linecap="round" stroke-linejoin="round"/><rect x="203.25" y="20.68" width="4.62" height="4.62" transform="translate(1.2 -8.98) rotate(2.51)" fill="#f088a0" stroke="#231f20" stroke-linecap="round" stroke-linejoin="round"/><rect x="211.66" y="21.04" width="4.62" height="4.62" transform="translate(1.23 -9.34) rotate(2.51)" fill="#f088a0" stroke="#231f20" stroke-linecap="round" stroke-linejoin="round"/><rect x="220.06" y="21.41" width="4.62" height="4.62" transform="translate(1.25 -9.71) rotate(2.51)" fill="#f088a0" stroke="#231f20" stroke-linecap="round" stroke-linejoin="round"/><rect x="228.47" y="21.78" width="4.62" height="4.62" transform="translate(1.28 -10.08) rotate(2.51)" fill="#f088a0" stroke="#231f20" stroke-linecap="round" stroke-linejoin="round"/><rect x="236.87" y="22.15" width="4.62" height="4.62" transform="translate(1.3 -10.45) rotate(2.51)" fill="#f088a0" stroke="#231f20" stroke-linecap="round" stroke-linejoin="round"/><rect x="245.28" y="22.52" width="4.62" height="4.62" transform="translate(1.32 -10.81) rotate(2.51)" fill="#f088a0" stroke="#231f20" stroke-linecap="round" stroke-linejoin="round"/><rect x="253.69" y="22.89" width="4.62" height="4.62" transform="translate(1.35 -11.18) rotate(2.51)" fill="#f088a0" stroke="#231f20" stroke-linecap="round" stroke-linejoin="round"/><rect x="262.09" y="23.25" width="4.62" height="4.62" transform="translate(1.37 -11.55) rotate(2.51)" fill="#f088a0" stroke="#231f20" stroke-linecap="round" stroke-linejoin="round"/></g><g><rect x="12.45" y="147.06" width="4.62" height="4.62" transform="translate(6.55 -.5) rotate(2.51)" fill="#f088a0" stroke="#231f20" stroke-linecap="round" stroke-linejoin="round"/><rect x="20.85" y="147.43" width="4.62" height="4.62" transform="translate(6.58 -.87) rotate(2.51)" fill="#f088a0" stroke="#231f20" stroke-linecap="round" stroke-linejoin="round"/><rect x="29.26" y="147.79" width="4.62" height="4.62" transform="translate(6.6 -1.24) rotate(2.51)" fill="#f088a0" stroke="#231f20" stroke-linecap="round" stroke-linejoin="round"/><rect x="37.66" y="148.16" width="4.62" height="4.62" transform="translate(6.62 -1.61) rotate(2.51)" fill="#f088a0" stroke="#231f20" stroke-linecap="round" stroke-linejoin="round"/><rect x="46.07" y="148.53" width="4.62" height="4.62" transform="translate(6.65 -1.97) rotate(2.51)" fill="#f088a0" stroke="#231f20" stroke-linecap="round" stroke-linejoin="round"/><rect x="54.47" y="148.9" width="4.62" height="4.62" transform="translate(6.67 -2.34) rotate(2.51)" fill="#f088a0" stroke="#231f20" stroke-linecap="round" stroke-linejoin="round"/><rect x="62.88" y="149.27" width="4.62" height="4.62" transform="translate(6.7 -2.71) rotate(2.51)" fill="#f088a0" stroke="#231f20" stroke-linecap="round" stroke-linejoin="round"/><rect x="71.28" y="149.64" width="4.62" height="4.62" transform="translate(6.72 -3.08) rotate(2.51)" fill="#f088a0" stroke="#231f20" stroke-linecap="round" stroke-linejoin="round"/><rect x="79.69" y="150" width="4.62" height="4.62" transform="translate(6.75 -3.44) rotate(2.51)" fill="#f088a0" stroke="#231f20" stroke-linecap="round" stroke-linejoin="round"/><rect x="88.09" y="150.37" width="4.62" height="4.62" transform="translate(6.77 -3.81) rotate(2.51)" fill="#f088a0" stroke="#231f20" stroke-linecap="round" stroke-linejoin="round"/><rect x="96.5" y="150.74" width="4.62" height="4.62" transform="translate(6.79 -4.18) rotate(2.51)" fill="#f088a0" stroke="#231f20" stroke-linecap="round" stroke-linejoin="round"/><rect x="104.9" y="151.11" width="4.62" height="4.62" transform="translate(6.82 -4.55) rotate(2.51)" fill="#f088a0" stroke="#231f20" stroke-linecap="round" stroke-linejoin="round"/><rect x="113.31" y="151.48" width="4.62" height="4.62" transform="translate(6.84 -4.91) rotate(2.51)" fill="#f088a0" stroke="#231f20" stroke-linecap="round" stroke-linejoin="round"/><rect x="121.71" y="151.85" width="4.62" height="4.62" transform="translate(6.87 -5.28) rotate(2.51)" fill="#f088a0" stroke="#231f20" stroke-linecap="round" stroke-linejoin="round"/><rect x="130.12" y="152.21" width="4.62" height="4.62" transform="translate(6.89 -5.65) rotate(2.51)" fill="#f088a0" stroke="#231f20" stroke-linecap="round" stroke-linejoin="round"/><rect x="138.53" y="152.58" width="4.62" height="4.62" transform="translate(6.91 -6.02) rotate(2.51)" fill="#f088a0" stroke="#231f20" stroke-linecap="round" stroke-linejoin="round"/><rect x="146.93" y="152.95" width="4.62" height="4.62" transform="translate(6.94 -6.38) rotate(2.51)" fill="#f088a0" stroke="#231f20" stroke-linecap="round" stroke-linejoin="round"/><rect x="155.34" y="153.32" width="4.62" height="4.62" transform="translate(6.96 -6.75) rotate(2.51)" fill="#f088a0" stroke="#231f20" stroke-linecap="round" stroke-linejoin="round"/><rect x="163.74" y="153.69" width="4.62" height="4.62" transform="translate(6.99 -7.12) rotate(2.51)" fill="#f088a0" stroke="#231f20" stroke-linecap="round" stroke-linejoin="round"/><rect x="172.15" y="154.06" width="4.62" height="4.62" transform="translate(7.01 -7.49) rotate(2.51)" fill="#f088a0" stroke="#231f20" stroke-linecap="round" stroke-linejoin="round"/><rect x="180.55" y="154.42" width="4.62" height="4.62" transform="translate(7.04 -7.85) rotate(2.51)" fill="#f088a0" stroke="#231f20" stroke-linecap="round" stroke-linejoin="round"/><rect x="188.96" y="154.79" width="4.62" height="4.62" transform="translate(7.06 -8.22) rotate(2.51)" fill="#f088a0" stroke="#231f20" stroke-linecap="round" stroke-linejoin="round"/><rect x="197.36" y="155.16" width="4.62" height="4.62" transform="translate(7.08 -8.59) rotate(2.51)" fill="#f088a0" stroke="#231f20" stroke-linecap="round" stroke-linejoin="round"/><rect x="205.77" y="155.53" width="4.62" height="4.62" transform="translate(7.11 -8.96) rotate(2.51)" fill="#f088a0" stroke="#231f20" stroke-linecap="round" stroke-linejoin="round"/><rect x="214.17" y="155.9" width="4.62" height="4.62" transform="translate(7.13 -9.32) rotate(2.51)" fill="#f088a0" stroke="#231f20" stroke-linecap="round" stroke-linejoin="round"/><rect x="222.58" y="156.26" width="4.62" height="4.62" transform="translate(7.16 -9.69) rotate(2.51)" fill="#f088a0" stroke="#231f20" stroke-linecap="round" stroke-linejoin="round"/><rect x="230.98" y="156.63" width="4.62" height="4.62" transform="translate(7.18 -10.06) rotate(2.51)" fill="#f088a0" stroke="#231f20" stroke-linecap="round" stroke-linejoin="round"/><rect x="239.39" y="157" width="4.62" height="4.62" transform="translate(7.2 -10.43) rotate(2.51)" fill="#f088a0" stroke="#231f20" stroke-linecap="round" stroke-linejoin="round"/><rect x="247.79" y="157.37" width="4.62" height="4.62" transform="translate(7.23 -10.79) rotate(2.51)" fill="#f088a0" stroke="#231f20" stroke-linecap="round" stroke-linejoin="round"/><rect x="256.2" y="157.74" width="4.62" height="4.62" transform="translate(7.25 -11.16) rotate(2.51)" fill="#f088a0" stroke="#231f20" stroke-linecap="round" stroke-linejoin="round"/></g><g><rect x="261.72" y="31.66" width="4.62" height="4.62" transform="translate(309.52 -228.32) rotate(92.51)" fill="#f088a0" stroke="#231f20" stroke-linecap="round" stroke-linejoin="round"/><rect x="261.35" y="40.06" width="4.62" height="4.62" transform="translate(317.53 -219.18) rotate(92.51)" fill="#f088a0" stroke="#231f20" stroke-linecap="round" stroke-linejoin="round"/><rect x="260.99" y="48.47" width="4.62" height="4.62" transform="translate(325.55 -210.04) rotate(92.51)" fill="#f088a0" stroke="#231f20" stroke-linecap="round" stroke-linejoin="round"/><rect x="260.62" y="56.87" width="4.62" height="4.62" transform="translate(333.56 -200.9) rotate(92.51)" fill="#f088a0" stroke="#231f20" stroke-linecap="round" stroke-linejoin="round"/><rect x="260.25" y="65.28" width="4.62" height="4.62" transform="translate(341.57 -191.76) rotate(92.51)" fill="#f088a0" stroke="#231f20" stroke-linecap="round" stroke-linejoin="round"/><rect x="259.88" y="73.68" width="4.62" height="4.62" transform="translate(349.59 -182.62) rotate(92.51)" fill="#f088a0" stroke="#231f20" stroke-linecap="round" stroke-linejoin="round"/><rect x="259.51" y="82.09" width="4.62" height="4.62" transform="translate(357.6 -173.48) rotate(92.51)" fill="#f088a0" stroke="#231f20" stroke-linecap="round" stroke-linejoin="round"/><rect x="259.14" y="90.5" width="4.62" height="4.62" transform="translate(365.61 -164.34) rotate(92.51)" fill="#f088a0" stroke="#231f20" stroke-linecap="round" stroke-linejoin="round"/><rect x="258.78" y="98.9" width="4.62" height="4.62" transform="translate(373.62 -155.2) rotate(92.51)" fill="#f088a0" stroke="#231f20" stroke-linecap="round" stroke-linejoin="round"/><rect x="258.41" y="107.31" width="4.62" height="4.62" transform="translate(381.64 -146.05) rotate(92.51)" fill="#f088a0" stroke="#231f20" stroke-linecap="round" stroke-linejoin="round"/><rect x="258.04" y="115.71" width="4.62" height="4.62" transform="translate(389.65 -136.91) rotate(92.51)" fill="#f088a0" stroke="#231f20" stroke-linecap="round" stroke-linejoin="round"/><rect x="257.67" y="124.12" width="4.62" height="4.62" transform="translate(397.66 -127.77) rotate(92.51)" fill="#f088a0" stroke="#231f20" stroke-linecap="round" stroke-linejoin="round"/><rect x="257.3" y="132.52" width="4.62" height="4.62" transform="translate(405.68 -118.63) rotate(92.51)" fill="#f088a0" stroke="#231f20" stroke-linecap="round" stroke-linejoin="round"/><rect x="256.94" y="140.93" width="4.62" height="4.62" transform="translate(413.69 -109.49) rotate(92.51)" fill="#f088a0" stroke="#231f20" stroke-linecap="round" stroke-linejoin="round"/><rect x="256.57" y="149.33" width="4.62" height="4.62" transform="translate(421.7 -100.35) rotate(92.51)" fill="#f088a0" stroke="#231f20" stroke-linecap="round" stroke-linejoin="round"/></g><g><rect x="17.97" y="20.98" width="4.62" height="4.62" transform="translate(44.43 4.05) rotate(92.51)" fill="#f088a0" stroke="#231f20" stroke-linecap="round" stroke-linejoin="round"/><rect x="17.6" y="29.38" width="4.62" height="4.62" transform="translate(52.44 13.19) rotate(92.51)" fill="#f088a0" stroke="#231f20" stroke-linecap="round" stroke-linejoin="round"/><rect x="17.23" y="37.79" width="4.62" height="4.62" transform="translate(60.46 22.33) rotate(92.51)" fill="#f088a0" stroke="#231f20" stroke-linecap="round" stroke-linejoin="round"/><rect x="16.87" y="46.2" width="4.62" height="4.62" transform="translate(68.47 31.47) rotate(92.51)" fill="#f088a0" stroke="#231f20" stroke-linecap="round" stroke-linejoin="round"/><rect x="16.5" y="54.6" width="4.62" height="4.62" transform="translate(76.48 40.61) rotate(92.51)" fill="#f088a0" stroke="#231f20" stroke-linecap="round" stroke-linejoin="round"/><rect x="16.13" y="63.01" width="4.62" height="4.62" transform="translate(84.5 49.75) rotate(92.51)" fill="#f088a0" stroke="#231f20" stroke-linecap="round" stroke-linejoin="round"/><rect x="15.76" y="71.41" width="4.62" height="4.62" transform="translate(92.51 58.89) rotate(92.51)" fill="#f088a0" stroke="#231f20" stroke-linecap="round" stroke-linejoin="round"/><rect x="15.39" y="79.82" width="4.62" height="4.62" transform="translate(100.52 68.04) rotate(92.51)" fill="#f088a0" stroke="#231f20" stroke-linecap="round" stroke-linejoin="round"/><rect x="15.02" y="88.22" width="4.62" height="4.62" transform="translate(108.53 77.18) rotate(92.51)" fill="#f088a0" stroke="#231f20" stroke-linecap="round" stroke-linejoin="round"/><rect x="14.66" y="96.63" width="4.62" height="4.62" transform="translate(116.55 86.32) rotate(92.51)" fill="#f088a0" stroke="#231f20" stroke-linecap="round" stroke-linejoin="round"/><rect x="14.29" y="105.03" width="4.62" height="4.62" transform="translate(124.56 95.46) rotate(92.51)" fill="#f088a0" stroke="#231f20" stroke-linecap="round" stroke-linejoin="round"/><rect x="13.92" y="113.44" width="4.62" height="4.62" transform="translate(132.57 104.6) rotate(92.51)" fill="#f088a0" stroke="#231f20" stroke-linecap="round" stroke-linejoin="round"/><rect x="13.55" y="121.84" width="4.62" height="4.62" transform="translate(140.59 113.74) rotate(92.51)" fill="#f088a0" stroke="#231f20" stroke-linecap="round" stroke-linejoin="round"/><rect x="13.18" y="130.25" width="4.62" height="4.62" transform="translate(148.6 122.88) rotate(92.51)" fill="#f088a0" stroke="#231f20" stroke-linecap="round" stroke-linejoin="round"/><rect x="12.81" y="138.65" width="4.62" height="4.62" transform="translate(156.61 132.02) rotate(92.51)" fill="#f088a0" stroke="#231f20" stroke-linecap="round" stroke-linejoin="round"/></g><ellipse cx="141.47" cy="87.59" rx="50.48" ry="66.01" transform="translate(47.78 225.09) rotate(-87.49)" fill="#f088a0" stroke="#231f20" stroke-linecap="round" stroke-linejoin="round"/><ellipse cx="141.47" cy="87.55" rx="46.27" ry="61.79" transform="translate(47.82 225.05) rotate(-87.49)" fill="#f088a0" stroke="#231f20" stroke-linecap="round" stroke-linejoin="round"/><g><path d="M120.37,48.51c1.74-.54,2.86,0,2.96,1.75,.07,1.25-.41,1.89-1.63,2.42v.07c1.03-.17,1.47,.05,1.71,1.08,.14,.47,.28,1.14,.38,1.49l-2.44,.75c-.42,.13-.56,0-.71-.62-.26-1.31-.38-1.54-.89-1.38-.19,.06-.27,.08-.45,.15,.07,.97,.16,1.83,.25,2.41l-2.97,.92c-.04-1.12-.09-2.23-.18-3.88-.09-1.64-.16-2.75-.25-3.86l4.2-1.29Zm.13,2.87c-.05-.8-.32-.95-.83-.79-.12,.03-.35,.12-.58,.2,.04,.61,.07,1.23,.11,1.81,.2-.05,.43-.12,.71-.21,.44-.13,.61-.43,.59-1.01Z"/><path d="M131.04,46.29c-.03,.25-.06,.68-.09,1.04-.02,.37-.05,.84-.06,1.09-1.03,.17-2.13,.36-2.99,.52l-.05,.76c1.01-.18,2.06-.38,2.91-.57-.03,.43-.1,1.36-.13,1.84-.83,.12-1.9,.29-2.89,.47l-.05,.79c.88-.16,2.04-.38,2.99-.56-.04,.3-.07,.79-.09,1.2-.03,.39-.06,.85-.07,1.16l-6.05,1.09c.1-1.09,.19-2.23,.29-3.88,.11-1.64,.18-2.81,.22-3.87l6.05-1.09Z"/><path d="M139.13,45.81c0,1.01,.04,5.63,.18,7.53l-3.34,.2c.05-.29,.11-.78,.17-1.37l-.74,.04-.77,.05c-.17,.58-.3,1.07-.36,1.38l-3.24,.19c.83-1.95,2.6-6.71,2.94-7.71l5.16-.31Zm-2.86,4.64c.04-.69,.07-1.4,.08-2.04-.01-.41,0-.91,.01-1.29h-.05c-.14,.39-.3,.89-.47,1.33-.23,.65-.47,1.37-.68,2.06l.56-.03,.55-.03Z"/><path d="M145.43,49.01c.22-.71,.07-.96-.4-.99-.5-.02-.83,.23-1.24,1.57-.41,1.29-.22,1.69,.31,1.72,.44,.03,.73-.33,.91-.88,.04-.11,.06-.24,.1-.37,.48,.04,.99,.07,1.49,.1,.5,.03,1,.06,1.5,.08-.04,.22-.11,.43-.17,.61-.71,2.24-1.76,2.94-4.32,2.79-2.98-.17-3.8-1.6-2.91-4.42,.81-2.6,2.14-3.43,4.74-3.28,2.91,.17,3.6,1.28,3.12,2.84-.07,.22-.16,.45-.26,.71-.49-.05-.99-.08-1.48-.11s-1-.06-1.49-.07c.04-.11,.07-.22,.1-.31Z"/><path d="M156.63,47.63c-.16,.33-.39,.85-.59,1.32-.21,.45-.45,1.01-.59,1.38-.45-.09-.9-.17-1.33-.25-.89,2.06-1.71,3.99-1.89,4.46-.43-.1-1.15-.23-1.67-.31-.51-.09-1.22-.21-1.68-.25,.23-.46,1.08-2.38,1.98-4.44-.44-.06-.89-.14-1.35-.21,.17-.36,.41-.92,.62-1.37,.2-.47,.43-.99,.56-1.32l5.94,1Z"/><path d="M157.06,54.48c-.18,.74-.62,1.04-1.28,.88-.64-.16-.9-.62-.73-1.36,.18-.73,.62-1.01,1.26-.85,.64,.15,.92,.6,.74,1.34Z"/><path d="M163.8,52.77c.59,.38,.76,.71,.59,1.25-.29,.9-1.25,1.25-3.25,.6-.33-.11-.62-.22-.88-.35-.11,.11-.19,.25-.23,.38-.05,.14,.05,.28,.3,.36,.87,.28,1.63,.44,2.2,.62,1.21,.4,1.6,.99,1.3,1.9-.34,1.05-1.24,1.41-3.76,.59-2.65-.87-2.9-1.4-2.72-1.98,.15-.45,.59-.59,1.31-.52v-.04c-.43-.3-.51-.63-.4-.95,.17-.51,.74-.7,1.4-.7v-.03c-.71-.55-.87-1.23-.62-1.97,.42-1.3,1.55-1.7,3.34-1.12,.21,.07,1.97,.67,3.26,1.09-.07,.19-.36,1.08-.45,1.33-.31-.1-.84-.31-1.37-.52l-.02,.06Zm-1.59,4.29c.06-.17-.02-.3-.42-.43-.66-.22-1.58-.41-2.18-.61-.09-.03-.19-.06-.27-.1-.1,.05-.16,.1-.18,.17-.1,.3,.12,.53,1.3,.91,1.2,.39,1.65,.37,1.76,.06Zm-1.64-4.68c-.14,.43,.13,.81,.97,1.09,.86,.28,1.3,.13,1.44-.3,.14-.42-.12-.84-.98-1.12-.84-.27-1.3-.09-1.44,.33Z"/><path d="M171.12,55.88c.54,.45,.67,.8,.43,1.31-.4,.86-1.39,1.09-3.29,.21-.32-.15-.59-.3-.83-.45-.12,.1-.21,.22-.27,.35-.06,.14,.01,.28,.26,.4,.83,.38,1.57,.63,2.1,.88,1.16,.54,1.47,1.17,1.06,2.04-.46,1-1.4,1.25-3.8,.13-2.53-1.18-2.71-1.74-2.46-2.28,.2-.43,.66-.51,1.36-.36l.02-.04c-.4-.35-.45-.68-.3-.99,.23-.49,.81-.61,1.48-.53v-.03c-.63-.63-.71-1.32-.38-2.03,.57-1.24,1.74-1.5,3.45-.71,.2,.09,1.88,.89,3.1,1.47-.09,.18-.49,1.02-.6,1.27-.29-.14-.8-.4-1.3-.68l-.03,.05Zm-2.09,4.06c.08-.16,.02-.3-.36-.48-.63-.29-1.52-.59-2.09-.86-.09-.04-.18-.08-.26-.13-.11,.04-.17,.08-.2,.15-.14,.29,.06,.54,1.18,1.06,1.15,.53,1.6,.57,1.74,.27Zm-1.07-4.84c-.19,.41,.04,.83,.84,1.2,.82,.38,1.27,.28,1.46-.13,.19-.4-.02-.85-.83-1.23-.8-.37-1.28-.24-1.47,.16Z"/></g><rect x="221.17" y="38.82" width="27.55" height="25.24" transform="translate(2.48 -10.23) rotate(2.51)" fill="#f088a0" stroke="#231f20" stroke-linecap="round" stroke-linejoin="round"/><g><ellipse cx="235.05" cy="51.27" rx="3" ry="7.9" transform="translate(173.54 283.85) rotate(-87.49)" fill="none" stroke="#231f20" stroke-linecap="round" stroke-linejoin="round"/><ellipse cx="235.05" cy="51.27" rx="3" ry="7.9" transform="translate(2.87 114.29) rotate(-27.49)" fill="none" stroke="#231f20" stroke-linecap="round" stroke-linejoin="round"/><ellipse cx="235.05" cy="51.27" rx="7.9" ry="3" transform="translate(65.49 221.94) rotate(-57.49)" fill="none" stroke="#231f20" stroke-linecap="round" stroke-linejoin="round"/><circle cx="235.05" cy="51.27" r="1.12" fill="#231f20"/></g><path d="M232.11,116.14c-7.73-.34-14.27,5.65-14.6,13.38-.34,7.73,5.65,14.27,13.38,14.6,7.73,.34,14.27-5.65,14.6-13.38s-5.65-14.27-13.38-14.6Zm3.11,16.99c-.13,2.86-2.48,4.31-6,4.15s-5.74-1.8-5.61-4.66l.36-8.27,3.65,.16-.36,8.13c-.04,.93,.75,1.6,2.09,1.66s2.21-.54,2.25-1.47l.36-8.13,3.63,.16-.36,8.27Zm4.94,0c-.2,1.68-.93,3.23-1.39,4.13l-.2,.42-.52-.02-.97-.04-1.02-.04,.33-.9c.32-.95,.73-2.33,.79-3.68l.02-.77,.78,.03,1.46,.06,.76,.03-.03,.77Zm-1.39-2.81c-.85-.04-1.52-.71-1.47-1.52,.02-.79,.75-1.4,1.6-1.36,.81,.04,1.5,.71,1.47,1.5-.05,.81-.79,1.42-1.6,1.38Z" fill="#231f20"/><rect x="30.42" y="110.7" width="27.55" height="25.24" transform="translate(82.95 248.45) rotate(-177.49)" fill="#f088a0" stroke="#231f20" stroke-linecap="round" stroke-linejoin="round"/><g><ellipse cx="44.09" cy="123.48" rx="3" ry="7.9" transform="translate(-81.2 162.12) rotate(-87.49)" fill="none" stroke="#231f20" stroke-linecap="round" stroke-linejoin="round"/><ellipse cx="44.09" cy="123.48" rx="3" ry="7.9" transform="translate(-52.02 34.3) rotate(-27.49)" fill="none" stroke="#231f20" stroke-linecap="round" stroke-linejoin="round"/><ellipse cx="44.09" cy="123.48" rx="7.9" ry="3" transform="translate(-83.73 94.3) rotate(-57.49)" fill="none" stroke="#231f20" stroke-linecap="round" stroke-linejoin="round"/><circle cx="44.09" cy="123.48" r="1.12" fill="#231f20"/></g><path d="M48.25,30.62c-7.73-.34-14.27,5.65-14.6,13.38-.34,7.73,5.65,14.27,13.38,14.6,7.73,.34,14.27-5.65,14.6-13.38,.34-7.73-5.65-14.27-13.38-14.6Zm3.11,16.99c-.13,2.86-2.48,4.31-6,4.15s-5.74-1.8-5.61-4.66l.36-8.27,3.65,.16-.36,8.13c-.04,.93,.75,1.6,2.09,1.66s2.21-.54,2.25-1.47l.36-8.13,3.63,.16-.36,8.27Zm4.94,0c-.2,1.68-.93,3.23-1.39,4.13l-.2,.42-.52-.02-.97-.04-1.02-.04,.33-.9c.32-.95,.73-2.33,.79-3.68l.02-.77,.78,.03,1.46,.06,.76,.03-.03,.77Zm-1.39-2.81c-.85-.04-1.52-.71-1.47-1.52,.02-.79,.75-1.4,1.6-1.36,.81,.04,1.5,.71,1.47,1.5-.05,.81-.79,1.42-1.6,1.38Z" fill="#231f20"/><g id="c"><g><path d="M168.42,69.36c.66,.73,.64,1.55,.75,2.3,.57,3.85,.09,7.66-.43,11.47-.43,3.16-1.38,6.18-2.67,9.08-1.21,2.72-2.77,5.2-5.62,6.48-3.3,1.48-7.59,.92-9.83-2.56-1.22-1.89-1.21-3.99-1.06-6.12,.29-4.16,1.61-8.03,3.33-11.77,.84-1.83,1.8-3.6,2.75-5.37,1.23-2.32,3.47-3.44,5.66-4.6,.4-.21,.83-.38,1.26-.54,.96-.35,1.83-.25,2.6,.48,.62,.58,.69,1.16,.2,1.84-.54,.74-1.3,1.13-2.17,1.31-.94,.19-1.68,.66-2.24,1.43-1.52,2.06-3.19,4.07-4.02,6.53-.88,2.6-1.57,5.27-2.29,7.93-.56,2.03-.68,4.11-.32,6.2,.09,.49,.35,.98,.62,1.41,.27,.42,.65,.58,1.16,.24,.22-.14,.62-.15,.89-.06,1.34,.41,2.84,.02,3.55-1.14,.76-1.24,1.48-2.52,2.03-3.87,.8-1.97,1.41-4.01,2.12-6.01,.12-.34,.29-.66,.49-.96,.64-.95,.94-2.02,.89-3.14-.1-2.22,.47-4.33,1.02-6.44,.28-1.09,.63-2.17,.96-3.24,.08-.26,.22-.51,.37-.85Z" fill="#231f20"/><path d="M149.91,69.96c.19,.58,.36,.95,.44,1.33,.84,4.24,.27,8.42-.69,12.56-.56,2.45-1.26,4.88-2.08,7.25-.9,2.6-2.46,4.8-4.58,6.59-2.27,1.92-4.81,2.34-7.54,1.34-1.24-.46-2.44-1.13-3.51-1.91-1.23-.9-1.85-2.19-1.76-3.81,.22-4.05,.72-8.07,2.5-11.75,1.49-3.08,3.15-6.1,5.01-8.97,1.57-2.42,4-3.89,6.84-4.58,.79-.19,1.53-.1,2.13,.53,.47,.5,.77,1.08,.51,1.76-.25,.68-.8,.96-1.54,.94-1.31-.03-2.37,.49-3.18,1.52-1.92,2.42-3.48,5.05-4.76,7.85-1,2.19-1.86,4.42-2.26,6.8-.31,1.84-.73,3.67-.55,5.57,.09,.97,.83,1.99,1.79,2.21,1.47,.33,2.9,.14,4.13-.72,.58-.4,1.14-.99,1.43-1.62,1.54-3.27,3.01-6.58,4.47-9.9,.22-.51,.34-1.14,.26-1.68-.29-1.89,.09-3.68,.67-5.44,.55-1.66,1.14-3.31,1.72-4.96,.09-.25,.27-.48,.53-.92Z" fill="#231f20"/><path d="M116.58,111.08c-.5-1.31-.71-2.54-.73-3.82-.07-3.57,1.06-6.87,2.46-10.06,2.75-6.28,5.6-12.52,8.4-18.78,.06-.14,.1-.3,.21-.63-.36,.17-.56,.26-.75,.37-1.58,.86-3.15,1.74-4.73,2.6-.86,.47-1.87,.38-2.57-.2-.73-.6-.8-1.45-.12-2.13,.28-.29,.64-.5,.97-.74,3.17-2.32,6.32-4.69,9.55-6.93,.76-.53,1.8-.8,2.74-.89,1.16-.11,1.89,1.09,1.51,2.29-.31,.98-.75,1.92-1.06,2.91-1.34,4.24-3.7,8-5.51,12.02-.41,.91-.65,1.9-1,2.84-.29,.78-.56,1.58-.95,2.32-1.58,3.02-3.21,6.01-4.81,9.02-.13,.25-.29,.55-.26,.81,.1,1.04-.43,1.9-.78,2.81-.73,1.91-1.5,3.79-2.25,5.69-.06,.15-.16,.27-.31,.51Z" fill="#231f20"/><path d="M162.76,116.29c-.69,.65-1.35,.95-2.16,.98-6.23,.22-12.47,.41-18.7,.71-6.37,.31-12.61,1.53-18.82,2.91-1.24,.28-2.47,.59-3.71,.88-1.25,.3-2.6-.81-2.52-2.08,.04-.67,.41-1.11,1.06-1.3,2.58-.75,5.13-1.61,7.74-2.24,8.46-2.07,17.06-2.94,25.75-2.82,.79,.01,1.58,.32,2.35,.58,.56,.19,1.03,.18,1.59-.04,.56-.21,1.22-.35,1.8-.26,2.09,.32,3.8,1.5,5.63,2.67Z" fill="#231f20"/><path d="M160.2,107.16c-1.19,.07-2.38,.12-3.57,.2-4.31,.3-8.62,.53-12.92,.95-3.98,.39-7.95,.96-11.92,1.5-1.09,.15-2.15,.51-3.23,.71-.25,.05-.64-.06-.8-.24-.32-.38-.59-.83-.75-1.29-.46-1.35-.2-1.76,1.18-2.01,5.1-.92,10.18-1.91,15.3-2.72,2.84-.45,5.72-.68,8.6-.19,.33,.06,.71,.08,.96,.27,.63,.5,1.18,.31,1.84,.05,.45-.18,1.09-.26,1.51-.09,1.09,.46,2.14,1.06,3.15,1.68,.33,.2,.53,.63,.79,.96-.05,.07-.09,.15-.14,.22Z" fill="#231f20"/></g></g></svg>