<?xml version="1.0" encoding="UTF-8"?><svg id="Layer_1" xmlns="http://www.w3.org/2000/svg" viewBox="0 0 464 85"><g><path d="M62.17,1.29c18,0,27.06,8.46,22.98,25.27-2.98,12.04-9.35,16.71-22.48,18.2l-.2,.7c10.25,1.39,13.73,4.77,13.03,15.22-.1,4.87-.7,11.64-.7,15.22h-25.37c-4.38,0-5.27-1.59-4.87-7.96,1.39-13.13,.89-15.72-4.38-15.72-1.99,0-2.79,0-4.68,.1-2.19,9.45-3.88,17.81-4.67,23.58H0c2.88-10.74,5.67-21.39,9.65-37.3C13.63,22.78,16.21,12.04,18.6,1.29H62.17Zm-7.16,27.55c1.89-7.76-.3-9.95-5.57-9.95-1.19,0-3.68,.1-6.07,.2-1.39,5.87-2.88,11.84-4.28,17.51,1.99,.1,4.48,.1,7.36,.1,4.58,0,7.06-2.29,8.55-7.86Z" fill="#f9f4da"/><path d="M159.56,1.29c-.7,2.39-1.79,6.57-2.69,9.95-.9,3.58-1.99,8.06-2.49,10.54-10.35-.2-21.39-.2-30.04-.2l-1.79,7.36c10.15,0,20.79-.1,29.34-.4-1.09,4.18-3.38,13.03-4.48,17.71-8.26-.3-19-.5-29.05-.5l-1.89,7.66c8.85,0,20.59-.1,30.14-.2-.9,2.88-2.09,7.56-2.98,11.54-1,3.78-2.09,8.16-2.69,11.14h-60.88c2.88-10.44,5.77-21.39,9.65-37.3,3.98-15.82,6.67-27.06,8.95-37.3h60.88Z" fill="#f9f4da"/><path d="M231.49,1.29c-.6,9.95-2.98,55.71-2.69,74.6h-33.12c.7-2.88,1.59-7.66,2.49-13.43h-15.02c-1.99,5.67-3.58,10.44-4.38,13.43h-32.13c9.35-18.8,29.74-64.86,33.62-74.6h51.23Zm-31.04,44.27c.8-6.76,1.49-13.83,1.99-20.09,.1-4.08,.5-8.95,.9-12.73h-.5c-1.59,3.78-3.48,8.55-5.47,12.83-2.69,6.27-5.47,13.23-7.96,19.99h11.04Z" fill="#f9f4da"/><path d="M283.21,30.34c1.79-7.16,.1-9.55-4.58-9.55-4.97,.1-8.06,2.79-11.34,16.21-3.28,13.03-1.19,16.81,4.08,16.81,4.38,0,7.06-3.68,8.46-9.25,.3-1.09,.5-2.39,.8-3.68,4.77,.1,9.85,.1,14.82,.1s9.95,0,14.82-.1c-.3,2.19-.8,4.28-1.29,6.17-5.67,22.58-15.72,30.14-41.08,30.14-29.54,0-38.5-13.63-31.33-41.98C243.02,9.05,255.76,0,281.52,0c28.85,0,36.31,10.54,32.53,26.26-.6,2.19-1.29,4.58-2.19,7.16-4.87-.2-9.85-.2-14.72-.2s-9.95,0-14.72,.2c.3-1.09,.6-2.19,.79-3.08Z" fill="#f9f4da"/><path d="M383.78,1.29c-.99,3.48-2.39,8.95-3.58,13.83-1.29,4.77-2.69,10.64-3.48,14.42-4.58-.1-9.05-.2-13.43-.2-5.27,21.58-10.15,41.78-11.14,46.65-4.38-.3-11.64-.3-16.81-.3s-12.24,0-16.81,.3c1.49-4.87,6.66-25.07,12.04-46.65-4.38,.1-8.95,.1-13.53,.2,1.09-3.78,2.49-9.65,3.78-14.42,1.19-4.87,2.59-10.34,3.28-13.83h59.68Z" fill="#f9f4da"/></g><g><path d="M396.39,63.34c-4.46-1.71-6.39-4.96-6.39-9.36,0-7.27,5.23-11.35,15.2-11.35,1.21,0,11.29,.05,18.67,.05-.05,.88-.05,4.74,0,5.95-2.04,0-5.67-.22-9.09-.39v.33c4.3,1.21,5.95,3.25,5.95,7,0,5.4-4.46,9.09-15.53,9.09-2.31,0-4.3-.17-6-.55-.94,1.05-1.38,2.09-1.38,3.03,0,1.16,.99,1.71,2.7,1.71,5.4,0,9.92-.44,13.5-.44,6.61,0,9.64,2.09,9.64,7.16,0,5.51-3.97,8.81-18.12,8.81-15.04,0-17.13-2.48-17.13-5.78,0-2.59,2.04-4.13,5.73-5.12v-.17c-2.48-.72-3.36-2.2-3.36-3.91,0-2.81,2.59-4.85,5.62-5.95v-.11Zm2.7,10.58c-.72,0-1.38,0-1.98-.05-1.05,.72-1.65,1.43-1.65,2.31,0,2.15,1.98,3.14,10.25,3.14,7.82,0,10.91-1.16,10.91-3.58,0-1.6-1.1-2.26-4.19-2.26-4.02,0-9.58,.44-13.33,.44Zm14.93-19.94c0-3.47-2.53-5.95-8.7-5.95s-8.59,2.59-8.59,5.89,2.53,5.56,8.59,5.56,8.7-2.15,8.7-5.51Z" fill="#f38ba3"/><path d="M435.83,63.34c-4.46-1.71-6.39-4.96-6.39-9.36,0-7.27,5.23-11.35,15.2-11.35,1.21,0,11.29,.05,18.67,.05-.05,.88-.05,4.74,0,5.95-2.04,0-5.67-.22-9.09-.39v.33c4.3,1.21,5.95,3.25,5.95,7,0,5.4-4.46,9.09-15.53,9.09-2.31,0-4.3-.17-6-.55-.94,1.05-1.38,2.09-1.38,3.03,0,1.16,.99,1.71,2.7,1.71,5.4,0,9.92-.44,13.5-.44,6.61,0,9.64,2.09,9.64,7.16,0,5.51-3.97,8.81-18.12,8.81-15.04,0-17.13-2.48-17.13-5.78,0-2.59,2.04-4.13,5.73-5.12v-.17c-2.48-.72-3.36-2.2-3.36-3.91,0-2.81,2.59-4.85,5.62-5.95v-.11Zm2.7,10.58c-.72,0-1.38,0-1.98-.05-1.05,.72-1.65,1.43-1.65,2.31,0,2.15,1.98,3.14,10.25,3.14,7.82,0,10.91-1.16,10.91-3.58,0-1.6-1.1-2.26-4.19-2.26-4.02,0-9.58,.44-13.33,.44Zm14.93-19.94c0-3.47-2.53-5.95-8.7-5.95s-8.59,2.59-8.59,5.89,2.53,5.56,8.59,5.56,8.7-2.15,8.7-5.51Z" fill="#f38ba3"/></g><circle cx="372.11" cy="69.79" r="6" fill="#f38ba3"/></svg>