<?xml version="1.0" encoding="UTF-8"?><svg id="b" xmlns="http://www.w3.org/2000/svg" viewBox="0 0 210 210"><circle cx="107.5" cy="107" r="101.7" fill="#231f20" stroke="#231f20" stroke-linecap="round" stroke-linejoin="round"/><circle cx="102.5" cy="103" r="101.7" fill="#f9f4da" stroke="#231f20" stroke-linejoin="round"/><g><path d="M140.9,187.68c47.19-21.21,68.26-76.65,47.05-123.84C166.75,16.64,111.3-4.42,64.11,16.78,16.92,37.99-4.15,93.43,17.06,140.63c21.21,47.19,76.65,68.26,123.84,47.05ZM59,121.78c-10.8-24.03-.07-52.26,23.96-63.05,24.03-10.8,52.26-.07,63.05,23.96,10.8,24.03,.07,52.26-23.96,63.05-24.03,10.8-52.26,.07-63.05-23.96Z" fill="#f9b728" stroke="#231f20" stroke-linecap="round" stroke-linejoin="round"/><path d="M64.43,130.95c-2.1-2.79-3.94-5.85-5.43-9.17-7.36-16.38-4.71-34.7,5.33-48.13h0S26.62,47.27,26.62,47.27C7.64,73.54,2.82,108.94,17.06,140.63c3.14,6.99,7.04,13.4,11.55,19.19h0l35.83-28.84v-.03Z" fill="#ea203d" stroke="#231f20" stroke-linejoin="round"/><path d="M119.85,146.66c-20.16,7.89-42.75,1.09-55.4-15.67h-.03s-35.83,28.83-35.83,28.83h0c24.86,31.96,68.39,44.86,107.38,29.9h0l-16.13-43.06h0Z" fill="#f088a0" stroke="#231f20" stroke-linecap="round" stroke-linejoin="round"/><path d="M196.18,100.33h0s-45.98,.93-45.98,.93h0c.37,18.54-10.16,36.39-28.15,44.47-.73,.33-1.46,.63-2.2,.92h0s16.13,43.06,16.13,43.06c1.65-.63,3.29-1.31,4.91-2.04,35.32-15.87,56-50.93,55.28-87.34Z" fill="#12b2e2" stroke="#231f20" stroke-linecap="round" stroke-linejoin="round"/><path d="M150.2,101.26l45.98-.93h0c-.24-12.24-2.9-24.63-8.23-36.5-11.73-26.11-33.96-44.22-59.46-51.6l-11.72,44.06,.05,.45c12.53,3.95,23.38,13.01,29.19,25.94,2.72,6.04,4.07,12.35,4.19,18.58h0Z" fill="#0ba65b" stroke="#231f20" stroke-linecap="round" stroke-linejoin="round"/><path d="M59,121.78c-10.8-24.03-.07-52.26,23.96-63.05,24.03-10.8,52.26-.07,63.05,23.96,10.8,24.03,.07,52.26-23.96,63.05-24.03,10.8-52.26,.07-63.05-23.96Zm0,0c-10.8-24.03-.07-52.26,23.96-63.05,24.03-10.8,52.26-.07,63.05,23.96,10.8,24.03,.07,52.26-23.96,63.05-24.03,10.8-52.26,.07-63.05-23.96Z" fill="#231f20" stroke="#231f20" stroke-linecap="round" stroke-linejoin="round"/><g><path d="M165.26,118.01l6.5-3.33,.31,2.11-7.36,3.88,.55-2.66Zm1.46-7.03l12.82,2.67-.44,2.11-12.82-2.67,.44-2.11Zm5.14,2.58l1.74,.36-.67,3.24c-.13,.65-.07,1.19,.19,1.62,.26,.43,.69,.71,1.29,.83,.54,.11,1.03,.03,1.47-.25,.44-.28,.73-.74,.86-1.39l.68-3.26,1.83,.38-.7,3.35c-.17,.81-.48,1.48-.93,2.02-.45,.54-.99,.92-1.62,1.15-.62,.22-1.29,.26-2,.11-.74-.15-1.36-.46-1.84-.91s-.81-1.01-.99-1.69c-.18-.67-.18-1.42-.02-2.22l.7-3.35Z" fill="#231f20"/><path d="M163.24,124.52l1.81,.75-2.81,6.78-1.81-.75,2.81-6.78Zm.56-1.37l12.1,5.01-.82,1.99-12.1-5.01,.82-1.99Zm4.74,3.56l1.75,.72-2.56,6.19-1.75-.72,2.56-6.19Zm4.98,2.06l1.82,.75-2.77,6.69-1.81-.75,2.77-6.69Z" fill="#231f20"/><path d="M159.52,133.3l7.86,11.78-.84,1.24-13.85-2.88,1.3-1.92,11.14,2.45-.44,.65-6.44-9.43,1.28-1.89Zm.61,3.61l1.55,1.04-3.88,5.76-1.55-1.04,3.88-5.76Z" fill="#231f20"/><path d="M147.02,148.88c.68-.67,1.42-1.16,2.23-1.48,.81-.32,1.65-.47,2.51-.45,.86,.02,1.69,.21,2.5,.56,.8,.35,1.53,.86,2.19,1.53,.66,.67,1.16,1.4,1.5,2.21,.34,.81,.52,1.64,.52,2.5s-.16,1.69-.49,2.5c-.33,.81-.83,1.55-1.5,2.22-.76,.74-1.53,1.26-2.33,1.56-.8,.29-1.62,.44-2.46,.43l.02-2.06c.57,.03,1.14-.06,1.7-.28,.56-.22,1.11-.59,1.63-1.11,.46-.46,.81-.95,1.03-1.49,.22-.54,.33-1.09,.32-1.67-.01-.57-.15-1.14-.4-1.7s-.62-1.08-1.1-1.57c-.48-.49-1-.86-1.55-1.12-.55-.26-1.12-.4-1.69-.42-.57-.02-1.13,.08-1.67,.29-.54,.22-1.04,.55-1.5,1.01-.57,.56-.96,1.12-1.19,1.69-.22,.56-.33,1.13-.3,1.71l-2.06-.02c0-.86,.16-1.69,.5-2.51,.33-.82,.87-1.59,1.62-2.33Z" fill="#231f20"/><path d="M138.77,155.78l6.95,10.66-1.8,1.17-6.95-10.66,1.8-1.18Zm9.65,7l1.07,1.65-8.95,5.84-1.07-1.64,8.95-5.84Z" fill="#231f20"/><path d="M108.18,166.7l5.29,5.04-1.89,.99-6.09-5.67,2.69-.36Zm6.39,4.76l.23,1.76-3.28,.43c-.65,.09-1.14,.32-1.46,.71-.32,.39-.44,.88-.36,1.49,.07,.54,.31,.98,.72,1.3s.94,.44,1.59,.36l3.3-.44,.25,1.85-3.4,.45c-.81,.11-1.55,.04-2.21-.21-.66-.25-1.2-.63-1.62-1.15-.41-.52-.67-1.14-.76-1.85-.1-.75-.02-1.43,.25-2.03,.27-.6,.69-1.1,1.27-1.49,.58-.39,1.28-.64,2.09-.75l3.39-.45Zm.74-5.7l1.71,12.99-2.13,.28-1.71-12.99,2.13-.28Z" fill="#231f20"/><path d="M100.75,178.05l-.12,1.96-7.23-.42,.12-1.96,7.23,.42Zm.64-11.11l-.11,1.96-7.32-.42,.11-1.96,7.32,.42Zm-.33,5.73l-.11,1.89-6.69-.39,.11-1.89,6.69,.39Zm1.81-5.65l-.76,13.08-2.15-.12,.76-13.08,2.15,.13Z" fill="#231f20"/><path d="M91.89,166.3l-8.57,11.28-1.45-.38-1.81-14.03,2.24,.59,1.33,11.33-.76-.2,6.81-9.17,2.21,.59Zm-3.22,1.76l-.48,1.81-6.71-1.78,.48-1.81,6.71,1.78Z" fill="#231f20"/><path d="M73.07,159.58c.85,.42,1.56,.96,2.13,1.63,.57,.66,.99,1.41,1.25,2.22,.26,.82,.36,1.67,.29,2.54-.07,.88-.31,1.73-.73,2.57s-.95,1.55-1.6,2.14c-.65,.59-1.38,1.02-2.19,1.31-.81,.28-1.65,.4-2.53,.36-.88-.04-1.74-.28-2.59-.7-.95-.47-1.7-1.03-2.23-1.69-.54-.66-.94-1.38-1.21-2.19l1.96-.66c.16,.55,.44,1.06,.83,1.51,.39,.46,.92,.85,1.58,1.18,.58,.29,1.16,.45,1.74,.49,.58,.04,1.14-.05,1.68-.25,.54-.2,1.03-.51,1.47-.93,.45-.42,.82-.94,1.12-1.55,.3-.62,.49-1.23,.55-1.83s.01-1.19-.15-1.74c-.17-.55-.44-1.04-.82-1.48-.38-.44-.86-.8-1.45-1.09-.71-.35-1.38-.54-1.98-.57-.61-.03-1.18,.06-1.71,.27l-.66-1.96c.81-.28,1.65-.4,2.53-.36,.88,.05,1.79,.3,2.73,.77Z" fill="#231f20"/><path d="M60.4,165.46l-1.2,1.56-8.46-6.53,1.2-1.55,8.46,6.52Zm3.42-11.42l-7.77,10.08-1.71-1.31,7.77-10.08,1.7,1.31Z" fill="#231f20"/><path d="M38.37,130.95l-1.65,.66-1.22-3.08c-.24-.62-.59-1.03-1.05-1.25-.45-.22-.96-.21-1.53,.01-.51,.2-.87,.54-1.09,1.02-.21,.47-.2,1.02,.04,1.63l1.23,3.1-1.74,.69-1.26-3.18c-.3-.76-.42-1.5-.34-2.2,.08-.7,.32-1.32,.72-1.84,.4-.53,.94-.93,1.61-1.19,.71-.28,1.38-.36,2.03-.25,.65,.11,1.23,.4,1.75,.87s.93,1.08,1.24,1.84l1.26,3.18Zm5.71-.68l-12.17,4.83-.79-2,12.17-4.83,.79,2Zm-2.65-6.68l-3.6,6.36-1.42-1.59,4.01-7.29,1,2.52Z" fill="#f0f4da"/><path d="M28.6,119.19l-1.93,.38-1.38-7.11,1.93-.38,1.38,7.11Zm11.21-.67l-12.86,2.5-.41-2.11,12.86-2.5,.41,2.11Zm-5.92-.35l-1.86,.36-1.28-6.58,1.86-.36,1.28,6.58Zm5.64-1.1l-1.93,.38-1.4-7.2,1.93-.38,1.4,7.2Z" fill="#f0f4da"/><path d="M37.78,107.71l-13.04-5.52v-1.5s13.17-5.22,13.17-5.22l-.02,2.32-10.65,4.09v-.79s10.57,4.33,10.57,4.33l-.02,2.28Zm-2.5-2.68l-1.87-.02,.07-6.94,1.87,.02-.07,6.94Z" fill="#f0f4da"/><path d="M39.66,87.82c-.2,.93-.55,1.75-1.05,2.46s-1.12,1.3-1.85,1.76c-.73,.46-1.53,.76-2.39,.9-.87,.15-1.76,.12-2.67-.08-.92-.2-1.74-.54-2.47-1.03s-1.33-1.09-1.8-1.8c-.47-.71-.79-1.5-.97-2.36-.17-.86-.16-1.75,.04-2.68,.22-1.04,.59-1.9,1.09-2.58,.5-.68,1.11-1.25,1.82-1.71l1.12,1.73c-.5,.29-.92,.68-1.27,1.17s-.6,1.1-.75,1.82c-.13,.63-.15,1.24-.04,1.81,.11,.57,.32,1.09,.65,1.57s.75,.87,1.26,1.2c.52,.33,1.11,.56,1.78,.71,.67,.14,1.31,.17,1.91,.09,.61-.09,1.15-.28,1.64-.58,.49-.3,.9-.68,1.23-1.16,.33-.48,.57-1.03,.7-1.67,.17-.78,.19-1.47,.07-2.06s-.35-1.12-.68-1.59l1.73-1.12c.47,.71,.79,1.5,.96,2.37s.15,1.81-.07,2.84Z" fill="#f0f4da"/><path d="M30.85,76.98l-1.8-.78,4.25-9.8,1.8,.78-4.25,9.8Zm11.91,.52l-11.67-5.06,.86-1.97,11.67,5.06-.86,1.97Z" fill="#f0f4da"/><path d="M56.83,56.24l-8.57-9.9,1.63-1.41,8.57,9.9-1.63,1.41Zm-2.52-5.17l-1.16-1.34,2.5-2.17c.5-.43,.78-.9,.83-1.4,.05-.5-.12-.98-.52-1.44-.36-.41-.8-.65-1.32-.69-.52-.05-1.03,.15-1.53,.58l-2.52,2.18-1.22-1.42,2.59-2.24c.62-.54,1.28-.89,1.96-1.05s1.35-.13,1.98,.07c.63,.21,1.18,.58,1.66,1.13,.5,.58,.8,1.19,.91,1.84,.11,.65,.03,1.3-.24,1.94-.27,.64-.71,1.24-1.33,1.77l-2.59,2.24Zm7.95,.47l-7.19-1.3,1.04-1.86,8.21,1.39-2.05,1.78Z" fill="#231f20"/><path d="M66.52,48.35l-6.56-11.34,1.86-1.08,6.56,11.34-1.86,1.08Zm-4.29-10.38l-.98-1.7,6.27-3.63,.98,1.7-6.27,3.62Zm2.7,4.67l-.95-1.64,5.8-3.35,.95,1.64-5.8,3.35Zm2.88,4.97l-.98-1.7,6.35-3.67,.98,1.7-6.35,3.67Z" fill="#231f20"/><path d="M75.97,42.85l1.14-14.12,1.43-.46,9.09,10.85-2.21,.71-7.22-8.83,.75-.24-.8,11.39-2.17,.7Zm1.76-3.22l-.57-1.78,6.61-2.11,.57,1.78-6.61,2.11Z" fill="#231f20"/><path d="M95.49,38.13c-.94,.12-1.83,.06-2.67-.18-.84-.24-1.6-.63-2.27-1.17-.67-.54-1.22-1.19-1.64-1.96-.42-.77-.69-1.62-.81-2.55s-.07-1.82,.15-2.67c.22-.85,.59-1.62,1.11-2.3,.52-.68,1.15-1.24,1.91-1.69,.75-.45,1.6-.73,2.54-.85,1.05-.13,1.98-.07,2.79,.18,.81,.25,1.55,.63,2.22,1.15l-1.27,1.63c-.44-.37-.95-.64-1.53-.81-.58-.17-1.23-.2-1.96-.11-.64,.08-1.22,.27-1.72,.56-.5,.29-.92,.67-1.26,1.13s-.58,.99-.71,1.59-.16,1.23-.08,1.92,.27,1.29,.55,1.84c.28,.54,.64,1,1.09,1.36,.44,.37,.94,.63,1.5,.78s1.16,.19,1.81,.11c.79-.1,1.45-.3,1.97-.62,.52-.31,.95-.7,1.28-1.17l1.63,1.26c-.52,.68-1.16,1.25-1.92,1.69-.76,.45-1.66,.74-2.7,.87Z" fill="#231f20"/><path d="M102.81,26.24l.15-1.96,10.65,.8-.15,1.96-10.65-.8Zm3.42,11.42l.95-12.69,2.14,.16-.95,12.69-2.14-.16Z" fill="#231f20"/><path d="M130.94,44.01l6.54-11.35,1.87,1.07-6.54,11.35-1.87-1.07Zm4.05-4.08l.89-1.54,2.87,1.65c.57,.33,1.1,.44,1.59,.33,.49-.11,.89-.44,1.19-.97,.28-.48,.35-.96,.22-1.47-.12-.51-.48-.92-1.05-1.25l-2.88-1.66,.93-1.62,2.97,1.71c.71,.41,1.26,.92,1.63,1.51,.38,.6,.57,1.23,.58,1.89s-.16,1.31-.52,1.93c-.38,.66-.86,1.15-1.44,1.46-.58,.32-1.21,.45-1.91,.41s-1.4-.27-2.11-.68l-2.97-1.71Zm2.17,7.66l-1.13-7.22,2.1,.37,1.38,8.2-2.35-1.35Z" fill="#231f20"/><path d="M141.6,50.57l8.54-9.93,1.63,1.4-8.54,9.93-1.63-1.4Zm1.12,.96l1.28-1.49,5.56,4.78-1.28,1.49-5.56-4.78Zm3.74-4.36l1.23-1.43,5.08,4.37-1.23,1.43-5.08-4.37Zm3.51-4.09l1.28-1.49,5.49,4.72-1.28,1.49-5.49-4.72Z" fill="#231f20"/><path d="M149.88,57.8l13.65-3.76,.92,1.18-7.08,12.25-1.42-1.83,5.82-9.81,.48,.62-10.98,3.15-1.4-1.8Zm3.62,.55l1.48-1.14,4.25,5.49-1.48,1.15-4.25-5.49Z" fill="#231f20"/><path d="M160.73,74.55c-.42-.85-.65-1.71-.7-2.59-.05-.87,.07-1.71,.36-2.53,.29-.81,.73-1.54,1.32-2.19,.59-.65,1.3-1.18,2.14-1.6,.84-.41,1.7-.66,2.57-.73,.88-.07,1.72,.03,2.53,.3s1.55,.68,2.22,1.25c.67,.57,1.21,1.28,1.63,2.13,.47,.95,.71,1.85,.74,2.7,.03,.85-.09,1.67-.37,2.47l-1.95-.66c.21-.54,.3-1.1,.27-1.71s-.21-1.23-.54-1.89c-.29-.58-.65-1.06-1.09-1.45-.44-.38-.93-.66-1.48-.83-.55-.17-1.13-.22-1.73-.16-.61,.06-1.22,.25-1.84,.55-.62,.3-1.13,.68-1.55,1.12-.42,.44-.73,.93-.93,1.47s-.29,1.1-.25,1.68c.04,.58,.2,1.16,.48,1.74,.35,.72,.76,1.27,1.22,1.66,.46,.39,.97,.67,1.52,.83l-.66,1.95c-.81-.27-1.56-.69-2.23-1.26-.67-.57-1.24-1.33-1.7-2.27Z" fill="#231f20"/><path d="M164.71,84.59l12.29-3.28,.55,2.08-12.29,3.28-.55-2.08Zm9.66-6.99l1.9-.51,2.75,10.32-1.9,.51-2.75-10.32Z" fill="#231f20"/></g><line x1="150.2" y1="101.26" x2="196.18" y2="100.33" fill="none" stroke="#231f20" stroke-linejoin="round" stroke-width="1.43"/><line x1="119.86" y1="146.66" x2="135.98" y2="189.72" fill="none" stroke="#231f20" stroke-linejoin="round" stroke-width="1.43"/><line x1="128.49" y1="12.23" x2="116.77" y2="56.3" fill="none" stroke="#231f20" stroke-linejoin="round" stroke-width="1.43"/><line x1="64.43" y1="130.98" x2="28.6" y2="159.82" fill="none" stroke="#231f20" stroke-linejoin="round" stroke-width="1.43"/><line x1="26.62" y1="47.27" x2="64.32" y2="73.63" fill="none" stroke="#231f20" stroke-linejoin="round" stroke-width="1.43"/><g><path id="c" d="M110.75,102.16c1.1,3.64-1.45,7.64-5.7,8.93-4.25,1.29-8.6-.61-9.7-4.25-1.1-3.64-8.42-55.43-8.42-55.43,0,0,22.72,47.11,23.82,50.75Z" fill="#f6f1d7" stroke="#f6f1d7" stroke-linejoin="round" stroke-width="1.43"/><circle cx="102.59" cy="103" r="4.66" fill="none" stroke="#231f20" stroke-miterlimit="10"/></g></g></svg>