<svg xmlns="http://www.w3.org/2000/svg" viewBox="0 0 62 62"><circle cx="31" cy="31" r="30.7" fill="#231f20"/><g fill="#f9f4da"><path d="M39.45 19.06v18.15c0 6.28-5.02 9.67-12.74 9.67s-12.74-3.38-12.74-9.67V19.06h8.01v17.83c0 2.04 1.79 3.44 4.73 3.44s4.79-1.4 4.79-3.44V19.06h7.96ZM43.58 27.54c-.02-1.73 1.5-3.14 3.37-3.14 1.77 0 3.34 1.41 3.37 3.14-.02 1.77-1.6 3.18-3.37 3.18-1.86 0-3.39-1.41-3.37-3.18M42.34 44.87c.62-2.12 1.38-5.17 1.38-8.13l-.02-1.7h6.57v1.7c-.28 3.7-1.73 7.17-2.64 9.17l-.39.95-1.15.02h-4.37l.63-2.01Z"/></g></svg>