<?xml version="1.0" encoding="UTF-8"?><svg xmlns="http://www.w3.org/2000/svg" xmlns:xlink="http://www.w3.org/1999/xlink" viewBox="0 0 242 232"><defs><clipPath id="b"><circle cx="61.68" cy="104.9" r="13.9" fill="none"/></clipPath><clipPath id="c"><circle cx="126.82" cy="104.9" r="13.9" fill="none"/></clipPath></defs><path d="M30.64,191.03c7.78,4.59,16.85,7.24,26.54,7.24,17.81,0,33.53-8.91,42.97-22.5,9.18,7.96,21.14,12.79,34.24,12.79,28.89,0,52.3-23.42,52.3-52.3,0-3.5-.35-6.92-1.01-10.23,12.08-5.76,20.43-18.08,20.43-32.36,0-9.99-4.09-19.02-10.69-25.52,6.6-6.5,10.69-15.53,10.69-25.52,0-2.66-.3-5.25-.85-7.75,2.39,.64,4.9,.98,7.49,.98,16.05,0,29.06-13.01,29.06-29.06,0-2.34-.28-4.62-.81-6.8H0V213.83c14.47,0,26.69-9.61,30.64-22.79Z" fill="#231f20"/><g><path d="M227.88,42.21c-9.23,0-16.73-12.47-16.73-27.81,0-.47-.38-.85-.85-.85s-.85,.38-.85,.85c0,15.33-7.51,27.81-16.73,27.81-.47,0-.85,.38-.85,.85s.38,.85,.85,.85c9.23,0,16.73,12.47,16.73,27.81,0,.47,.38,.85,.85,.85s.85-.38,.85-.85c0-15.33,7.51-27.81,16.73-27.81,.47,0,.85-.38,.85-.85s-.38-.85-.85-.85Z" fill="#f5f0d6" stroke="#231f20" stroke-linejoin="round" stroke-width="1.23"/><path d="M36.62,160.84c-5.98,0-10.85-8.09-10.85-18.02,0-.31-.25-.55-.55-.55s-.55,.25-.55,.55c0,9.94-4.87,18.02-10.85,18.02-.31,0-.55,.25-.55,.55s.25,.55,.55,.55c5.98,0,10.85,8.09,10.85,18.02,0,.31,.25,.55,.55,.55s.55-.25,.55-.55c0-9.94,4.87-18.02,10.85-18.02,.31,0,.55-.25,.55-.55s-.25-.55-.55-.55Z" fill="#f5f0d6" stroke="#231f20" stroke-linejoin="round" stroke-width="1.23"/><path d="M183.25,33c-5,0-9.06-6.76-9.06-15.06,0-.25-.21-.46-.46-.46s-.46,.21-.46,.46c0,8.31-4.07,15.06-9.06,15.06-.26,0-.46,.21-.46,.46s.21,.46,.46,.46c5,0,9.06,6.76,9.06,15.06,0,.25,.21,.46,.46,.46s.46-.21,.46-.46c0-8.31,4.07-15.06,9.06-15.06,.26,0,.46-.21,.46-.46s-.21-.46-.46-.46Z" fill="#f5f0d6" stroke="#231f20" stroke-linejoin="round" stroke-width="1.23"/></g><g><g id="a"><g><polygon points="123.15 132.98 104.06 140.81 124.38 163.19 123.15 132.98" fill="#f5f0d6" stroke="#231f20" stroke-linejoin="round" stroke-width="1.23"/><polygon points="65.35 46.33 84.44 38.51 64.12 16.12 65.35 46.33" fill="#f5f0d6" stroke="#231f20" stroke-linejoin="round" stroke-width="1.23"/></g><g><polygon points="84.51 140.82 65.41 133.02 64.22 163.24 84.51 140.82" fill="#f5f0d6" stroke="#231f20" stroke-linejoin="round" stroke-width="1.23"/><polygon points="103.99 38.49 123.09 46.29 124.28 16.08 103.99 38.49" fill="#f5f0d6" stroke="#231f20" stroke-linejoin="round" stroke-width="1.23"/></g><g><polygon points="51.19 118.95 43.19 99.93 20.99 120.45 51.19 118.95" fill="#f5f0d6" stroke="#231f20" stroke-linejoin="round" stroke-width="1.23"/><polygon points="137.31 60.36 145.31 79.38 167.51 58.86 137.31 60.36" fill="#f5f0d6" stroke="#231f20" stroke-linejoin="round" stroke-width="1.23"/></g><g><polygon points="43.09 79.92 50.88 60.82 20.67 59.63 43.09 79.92" fill="#f5f0d6" stroke="#231f20" stroke-linejoin="round" stroke-width="1.23"/><polygon points="145.41 99.39 137.62 118.49 167.83 119.68 145.41 99.39" fill="#f5f0d6" stroke="#231f20" stroke-linejoin="round" stroke-width="1.23"/></g><g><polygon points="83.94 38.61 104.57 38.61 94.25 10.19 83.94 38.61" fill="#f5f0d6" stroke="#231f20" stroke-linejoin="round" stroke-width="1.23"/><polygon points="104.57 140.71 83.94 140.71 94.25 169.13 104.57 140.71" fill="#f5f0d6" stroke="#231f20" stroke-linejoin="round" stroke-width="1.23"/></g><g><polygon points="145.3 79.34 145.3 99.97 173.72 89.66 145.3 79.34" fill="#f5f0d6" stroke="#231f20" stroke-linejoin="round" stroke-width="1.23"/><polygon points="43.2 99.97 43.2 79.34 14.78 89.66 43.2 99.97" fill="#f5f0d6" stroke="#231f20" stroke-linejoin="round" stroke-width="1.23"/></g><g><polygon points="137.64 118.46 123.05 133.05 150.44 145.85 137.64 118.46" fill="#f5f0d6" stroke="#231f20" stroke-linejoin="round" stroke-width="1.23"/><polygon points="50.86 60.85 65.45 46.27 38.06 33.46 50.86 60.85" fill="#f5f0d6" stroke="#231f20" stroke-linejoin="round" stroke-width="1.23"/></g><g><polygon points="123.05 46.27 137.64 60.85 150.44 33.46 123.05 46.27" fill="#f5f0d6" stroke="#231f20" stroke-linejoin="round" stroke-width="1.23"/><polygon points="65.45 133.05 50.86 118.46 38.06 145.85 65.45 133.05" fill="#f5f0d6" stroke="#231f20" stroke-linejoin="round" stroke-width="1.23"/></g><g><polygon points="57.22 53.03 74.35 41.53 56.63 33.65 57.22 53.03" fill="#f5f0d6" stroke="#231f20" stroke-linejoin="round" stroke-width="1.23"/><polygon points="131.28 126.28 114.16 137.78 131.88 145.66 131.28 126.28" fill="#f5f0d6" stroke="#231f20" stroke-linejoin="round" stroke-width="1.23"/></g><g><polygon points="93.96 37.58 114.21 41.55 107.25 23.45 93.96 37.58" fill="#f5f0d6" stroke="#231f20" stroke-linejoin="round" stroke-width="1.23"/><polygon points="94.54 141.74 74.3 137.76 81.25 155.86 94.54 141.74" fill="#f5f0d6" stroke="#231f20" stroke-linejoin="round" stroke-width="1.23"/></g><g><polygon points="130.87 52.63 142.38 69.75 150.26 52.03 130.87 52.63" fill="#f5f0d6" stroke="#231f20" stroke-linejoin="round" stroke-width="1.23"/><polygon points="57.63 126.69 46.12 109.56 38.25 127.28 57.63 126.69" fill="#f5f0d6" stroke="#231f20" stroke-linejoin="round" stroke-width="1.23"/></g><g><polygon points="146.33 89.37 142.36 109.61 160.46 102.65 146.33 89.37" fill="#f5f0d6" stroke="#231f20" stroke-linejoin="round" stroke-width="1.23"/><polygon points="42.17 89.94 46.14 69.7 28.04 76.66 42.17 89.94" fill="#f5f0d6" stroke="#231f20" stroke-linejoin="round" stroke-width="1.23"/></g></g><circle cx="94.25" cy="89.96" r="53.94" fill="#f5f0d6" stroke="#231f20" stroke-linejoin="round" stroke-width="1.23"/><path d="M61.68,104.9s7.42,22.93,32.57,22.93,32.57-22.93,32.57-22.93" fill="none" stroke="#231f20" stroke-linecap="round" stroke-linejoin="round" stroke-width="1.23"/><g><circle cx="61.68" cy="104.9" r="13.9" fill="#231f20"/><circle cx="126.82" cy="104.9" r="13.9" fill="#231f20"/></g><path d="M101.56,127.26s-1.66,5.14-7.31,5.14-7.31-5.14-7.31-5.14" fill="none" stroke="#231f20" stroke-linecap="round" stroke-linejoin="round" stroke-width="1.23"/><g><g><path d="M75.69,72.58c-4.93,0-11.57,5.78-11.57,5.78,0,0,6.63,5.78,11.57,5.78s11.57-5.78,11.57-5.78c0,0-6.63-5.78-11.57-5.78Z" fill="none" stroke="#231f20" stroke-linejoin="round" stroke-width="1.23"/><path d="M77.64,78.36l3.63-1.49c-.66-2.47-2.9-4.29-5.58-4.29-3.19,0-5.78,2.59-5.78,5.78s2.59,5.78,5.78,5.78c2.69,0,4.94-1.83,5.59-4.32l-3.64-1.47Z" fill="#231f20"/></g><g><path d="M112.81,72.58c-4.93,0-11.57,5.78-11.57,5.78,0,0,6.63,5.78,11.57,5.78s11.57-5.78,11.57-5.78c0,0-6.63-5.78-11.57-5.78Z" fill="none" stroke="#231f20" stroke-linejoin="round" stroke-width="1.23"/><path d="M114.77,78.36l3.63-1.49c-.66-2.47-2.9-4.29-5.58-4.29-3.19,0-5.78,2.59-5.78,5.78s2.59,5.78,5.78,5.78c2.69,0,4.94-1.83,5.59-4.32l-3.64-1.47Z" fill="#231f20"/></g></g><path d="M43.56,71.15c4.17-7.16,11.92-11.97,20.8-11.97,13.29,0,24.06,10.77,24.06,24.06v17.64h11.66v-17.64c0-13.29,10.77-24.06,24.06-24.06,8.66,0,16.25,4.57,20.48,11.44" fill="none" stroke="#231f20" stroke-linecap="round" stroke-linejoin="round" stroke-width="1.23"/><path d="M57.3,50.67c2.24-.69,4.61-1.06,7.07-1.06,13.29,0,24.06,10.77,24.06,24.06v17.64" fill="none" stroke="#231f20" stroke-linecap="round" stroke-linejoin="round" stroke-width="1.23"/><path d="M75.04,39.54c7.93,3.93,13.38,12.11,13.38,21.56v17.64" fill="none" stroke="#231f20" stroke-linecap="round" stroke-linejoin="round" stroke-width="1.23"/><path d="M113.47,39.54c-7.93,3.93-13.38,12.11-13.38,21.56v2.13s0,15.51,0,15.51" fill="none" stroke="#231f20" stroke-linecap="round" stroke-linejoin="round" stroke-width="1.23"/><path d="M131.21,50.67c-2.24-.69-4.61-1.06-7.07-1.06-13.29,0-24.06,10.77-24.06,24.06v2.13s0,15.51,0,15.51" fill="none" stroke="#231f20" stroke-linecap="round" stroke-linejoin="round" stroke-width="1.23"/><g clip-path="url(#b)"><path d="M61.68,104.9s7.42,22.93,32.57,22.93,32.57-22.93,32.57-22.93" fill="none" stroke="#f5f0d6" stroke-linecap="round" stroke-linejoin="round" stroke-width="1.23"/></g><g clip-path="url(#c)"><path d="M61.68,104.9s7.42,22.93,32.57,22.93,32.57-22.93,32.57-22.93" fill="none" stroke="#f5f0d6" stroke-linecap="round" stroke-linejoin="round" stroke-width="1.23"/></g><path d="M101.4,127.26c-4.03-10.49-7.15-3.1-7.15-3.1h-.16s-3.11-7.39-7.15,3.1" fill="none" stroke="#231f20" stroke-linecap="round" stroke-linejoin="round" stroke-width="1.23"/><g><path d="M89.45,100.73c0-1.21,.98-2.19,2.19-2.19s2.19,.98,2.19,2.19" fill="#231f20"/><path d="M94.67,100.73c0-1.21,.98-2.19,2.19-2.19s2.19,.98,2.19,2.19" fill="#231f20"/></g></g></svg>