<svg xmlns="http://www.w3.org/2000/svg" viewBox="0 0 242 232" role="img" aria-labelledby="moon-title"><title id="moon-title">moon with a face</title><g><path fill="#231f20" d="M211.36 191.03a52.07 52.07 0 0 1-26.54 7.24c-17.81 0-33.53-8.91-42.97-22.5-9.18 7.96-21.14 12.79-34.24 12.79-28.89 0-52.3-23.42-52.3-52.3 0-3.5.35-6.92 1.01-10.23-12.08-5.76-20.43-18.08-20.43-32.36 0-9.99 4.09-19.02 10.69-25.52-6.6-6.5-10.69-15.53-10.69-25.52 0-2.66.3-5.25.85-7.75-2.39.64-4.9.98-7.49.98C13.2 35.86.19 22.85.19 6.8.19 4.46.47 2.18 1 0h241v213.83c-14.47 0-26.69-9.61-30.64-22.79Z"/></g><g><g fill="#f6f1d7" stroke="#231f20" stroke-linejoin="round" stroke-width="1.23"><path d="M78.08 160.29c-7.64 0-13.85-10.33-13.85-23.02 0-.39-.32-.71-.71-.71s-.71.32-.71.71c0 12.7-6.22 23.02-13.85 23.02-.39 0-.71.32-.71.71s.32.71.71.71c7.64 0 13.85 10.33 13.85 23.02 0 .39.32.71.71.71s.71-.32.71-.71c0-12.7 6.22-23.02 13.85-23.02.39 0 .71-.32.71-.71s-.32-.71-.71-.71ZM98.17 151.21c-4.04 0-7.33-5.46-7.33-12.18a.37.37 0 1 0-.74 0c0 6.72-3.29 12.18-7.33 12.18a.37.37 0 1 0 0 .74c4.04 0 7.33 5.46 7.33 12.18a.37.37 0 1 0 .74 0c0-6.72 3.29-12.18 7.33-12.18a.37.37 0 1 0 0-.74ZM229.86 23.99c-4.76 0-8.64-6.44-8.64-14.36 0-.24-.2-.44-.44-.44s-.44.2-.44.44c0 7.92-3.88 14.36-8.64 14.36-.24 0-.44.2-.44.44s.2.44.44.44c4.76 0 8.64 6.44 8.64 14.36 0 .24.2.44.44.44s.44-.2.44-.44c0-7.92 3.88-14.36 8.64-14.36.24 0 .44-.2.44-.44s-.2-.44-.44-.44Z"/></g><g stroke="#231f20" stroke-linejoin="round" stroke-width="1.23"><circle cx="145.31" cy="90.09" r="53.94" fill="#f6f1d7"/><path fill="none" stroke-linecap="round" d="M116.16 111.89c4.3 6.76 13.13 16.06 29.15 16.06s24.51-8.96 28.9-15.68"/><path fill="none" stroke-linecap="round" d="M157.15 126.02s-6.2 6.51-11.84 6.51-11.97-6.55-11.97-6.55M108.36 50.79c2.24-.69 4.61-1.06 7.07-1.06 13.29 0 24.06 10.77 24.06 24.06v17.64"/><path fill="none" stroke-linecap="round" d="M126.1 39.67c7.93 3.93 13.38 12.11 13.38 21.56v17.64M164.53 39.67c-7.93 3.93-13.38 12.11-13.38 21.56v17.64"/><path fill="none" stroke-linecap="round" d="M182.27 50.79c-2.24-.69-4.61-1.06-7.07-1.06-13.29 0-24.06 10.77-24.06 24.06v17.64M157.15 126.02c-4.03-10.49-11.84-1.74-11.84-1.74h-.16s-7.78-8.8-11.81 1.69"/><g fill="none" stroke-linecap="round"><path d="M113.11 86.73s2.36 6.71 10.94 6.71 10.94-6.71 10.94-6.71M155.3 86.73s2.36 6.71 10.94 6.71 10.94-6.71 10.94-6.71"/></g><g fill="none" stroke-linecap="round"><path d="M136.1 71.06c2.15 3.6 3.38 7.81 3.38 12.3V101a5.83 5.83 0 1 0 11.66 0V83.36c0-4.54 1.26-8.78 3.44-12.4M136.1 71.06c-4.2-7.04-11.88-11.75-20.67-11.75s-16.64 4.81-20.8 11.97M195.68 70.75c-4.24-6.86-11.83-11.44-20.48-11.44s-16.4 4.67-20.61 11.65"/></g></g><g id="stars"><g id="star5"><polygon points="208.75 90.65 214.49 102.3 227.34 104.16 218.04 113.23 220.24 126.02 208.75 119.98 197.25 126.02 199.45 113.23 190.15 104.16 203 102.3 208.75 90.65" fill="#f6f1d7" stroke="#231f20" stroke-linejoin="round" stroke-width="1.23"/></g><g id="star1"><polygon points="100.15 36.45 105.89 48.09 118.74 49.96 109.44 59.02 111.64 71.82 100.15 65.78 88.65 71.82 90.85 59.02 81.55 49.96 94.4 48.09 100.15 36.45" fill="#f6f1d7" stroke="#231f20" stroke-linejoin="round" stroke-width="1.23"/></g><g id="star2"><polygon points="77.65 72.55 80.31 77.93 86.25 78.79 81.95 82.98 82.97 88.9 77.65 86.1 72.34 88.9 73.36 82.98 69.06 78.79 75 77.93 77.65 72.55" fill="#f6f1d7" stroke="#231f20" stroke-linejoin="round" stroke-width="1.23"/></g><g id="star3"><polygon points="96.26 94.24 99.22 100.22 105.82 101.18 101.04 105.84 102.17 112.41 96.26 109.31 90.36 112.41 91.49 105.84 86.71 101.18 93.31 100.22 96.26 94.24" fill="#f6f1d7" stroke="#231f20" stroke-linejoin="round" stroke-width="1.23"/></g><g id="star4"><polygon points="197.43 65.15 200.09 70.53 206.03 71.39 201.73 75.58 202.75 81.5 197.43 78.71 192.12 81.5 193.13 75.58 188.84 71.39 194.78 70.53 197.43 65.15" fill="#f6f1d7" stroke="#231f20" stroke-linejoin="round" stroke-width="1.23"/></g></g><g fill="#f6f1d7"><circle cx="59.87" cy="13.55" r="1.82"/><circle cx="118.98" cy="25.47" r="1.82"/><circle cx="184.09" cy="18.18" r="1.82"/><circle cx="206.03" cy="55.65" r="1.82"/><circle cx="227.34" cy="49.74" r="1.82"/><circle cx="185.91" cy="145.66" r="1.82"/><circle cx="220.78" cy="168.21" r="1.82"/><circle cx="211.26" cy="136.56" r="1.82"/><circle cx="118.98" cy="156.39" r="1.82"/><circle cx="61.69" cy="109.54" r="1.82"/></g></g></svg>