<svg xmlns="http://www.w3.org/2000/svg" viewBox="0 0 242 232" role="img" aria-labelledby="fish-right-title"><title id="fish-right-title">three-eyed fish</title><path fill="#f5f0d6" d="M211.36 40.97a52.07 52.07 0 0 0-26.54-7.24c-17.81 0-33.53 8.91-42.97 22.5-9.18-7.96-21.14-12.79-34.24-12.79-28.89 0-52.3 23.42-52.3 52.3 0 3.5.35 6.92 1.01 10.23-12.08 5.76-20.43 18.08-20.43 32.36 0 9.99 4.09 19.02 10.69 25.52-6.6 6.5-10.69 15.53-10.69 25.52 0 2.66.3 5.25.85 7.75-2.39-.64-4.9-.98-7.49-.98C13.2 196.14.19 209.15.19 225.2c0 2.34.28 4.62.81 6.8h241V18.17c-14.47 0-26.69 9.61-30.64 22.79Z"/><path fill="#231f20" stroke="#231f20" stroke-linejoin="round" stroke-width="1.23" d="M31.33 137.61s.01-.1.05-.29c-.97-2.61-1.45-5.61-1.29-8.81.5-10.05 7.1-18.23 14.73-18.28 1.86-.01 3.61.46 5.18 1.32.32-.1.65-.2.98-.29 0 0-.39-7.09 9.09-8.04 2.78-.28 5.07-3.16 8.3-4.59 5.43-2.41 12.17-4.35 20.25-4.86 3.27-.21 6.56-.06 9.81.33 6.51.8 24.06 1.54 35.91-11.17 13.15-14.1 13 9.82 2.81 20.16-1.55 1.57-.84 4.23 1.3 4.8 7.04 1.88 19.12 4.34 26.6 1.56 9.46-3.51 2.23 10.72-9.46 15.06-2.28.85-2.55 3.96-.45 5.18 3.36 1.94 7.84 3.98 12.54 4.52 10.77 1.22 1.11 10.86-15.57 9.21 0 0 4.02 21.84 17.95 19.72 13.93-2.12 30.18-31.68 42.16-21.93 11.31 9.21-.78 24.95-16.27 26.3 6.73-.03 23.18 1.03 21.02 12.38-2.7 14.22-18.79 12.61-29.16 5.96 0 0 12.35 13.37 5.81 21.96-6.54 8.58-22.32-7.41-21.68-17.56 0 0-3.55 1.29-9.78 2.98-14.93 4.05-27.11 1.89-27.11 1.89s21.69 7.96 16.38 16.03-15.83 3.8-17.32-1.09c-1.49-4.89-6.05 10.41-13.85.93-7.8-9.49-8.44.67-10.9-7.88-2.08-7.25-1.71-5.72-1.54-5.09.03.13.05.2.05.2s-29.45 5.77-44.51-3.73c-3.5-2.21-7.63-3.19-11.76-3.01-4.74.22-10.49-.83-12.45-6.59 0 0-31.58-3.19-32.28-20.63s24.47-26.64 24.47-26.64Z"/><path fill="#f5f0d6" stroke="#231f20" stroke-linecap="round" stroke-linejoin="round" stroke-width="1.23" d="M47.21 105.98s-.39-7.09 9.09-8.04c2.78-.28 5.07-3.16 8.3-4.59 5.43-2.41 12.17-4.35 20.25-4.86 3.27-.21 6.56-.06 9.81.33 6.51.8 24.06 1.54 35.91-11.17 13.15-14.1 13 9.82 2.81 20.16-1.55 1.57-.84 4.23 1.3 4.8 7.04 1.88 19.12 4.34 26.6 1.56 9.46-3.51 2.23 10.72-9.46 15.06-2.28.85-2.55 3.96-.45 5.18 3.36 1.94 7.84 3.98 12.54 4.52 10.77 1.22 1.11 10.86-15.57 9.21 0 0 4.02 21.84 17.95 19.72 13.93-2.12 30.18-31.68 42.16-21.93 11.98 9.75-2.29 26.84-19.06 26.38 0 0 26.51-1.93 23.81 12.3-2.7 14.22-18.79 12.61-29.16 5.96 0 0 12.35 13.37 5.81 21.96-6.54 8.58-22.32-7.41-21.68-17.56 0 0-3.55 1.29-9.78 2.98-14.93 4.05-27.11 1.89-27.11 1.89s21.69 7.96 16.38 16.03c-5.31 8.06-15.83 3.8-17.32-1.09-1.49-4.89-6.05 10.41-13.85.93-7.8-9.49-8.44.67-10.9-7.88s-1.49-4.89-1.49-4.89-29.45 5.77-44.51-3.73c-3.5-2.21-7.63-3.19-11.76-3.01-4.74.22-10.49-.83-12.45-6.59 0 0-31.58-3.19-32.28-20.63s24.47-26.64 24.47-26.64 3.19-21.99 19.65-26.35Z"/><path fill="#f5f0d6" stroke="#231f20" stroke-linecap="round" stroke-linejoin="round" stroke-width="1.23" d="M104.09 192.93s-2.37-9.5-6.9-13.34M131.27 189.85s-15.03-5.95-20.35-11.35"/><g transform="rotate(-82.78 40.13 123.133)"><ellipse cx="40.13" cy="123.14" fill="#f5f0d6" stroke="#231f20" stroke-linecap="round" stroke-linejoin="round" stroke-width="1.23" rx="18.25" ry="13.77"/><ellipse cx="40.13" cy="123.14" fill="#231f20" rx="3.47" ry="2.62"/></g><g transform="rotate(-83.23 61.598 125.019)"><ellipse cx="61.6" cy="125.02" fill="#f5f0d6" stroke="#231f20" stroke-linecap="round" stroke-linejoin="round" stroke-width="1.23" rx="18.25" ry="13.77"/><ellipse cx="61.6" cy="125.02" fill="#231f20" rx="3.47" ry="2.62"/></g><g transform="rotate(-78.78 84.778 128.855)"><ellipse cx="84.77" cy="128.85" fill="#f5f0d6" stroke="#231f20" stroke-linecap="round" stroke-linejoin="round" stroke-width="1.23" rx="18.25" ry="13.77"/><ellipse cx="84.77" cy="128.85" fill="#231f20" rx="3.47" ry="2.62"/></g><path fill="#f5f0d6" stroke="#231f20" stroke-linecap="round" stroke-linejoin="round" stroke-width="1.23" d="M90.53 152.66s-3.58 3.57-12.41 1.53M63.57 151.94s-7.35 1.64-15.09-2.96M93.28 104.83s13.15 1.61 14.72 14.54M57.46 97.73s7.6-1.7 18.38 1.76M35.37 179.6s15.69-5.95 34.36.45c7.26 2.49 12.41 1 15.9-1.47"/><path fill="#f5f0d6" stroke="#231f20" stroke-linecap="round" stroke-linejoin="round" stroke-width="1.23" d="M89.22 183.13s-.49-6.8-8.15-7.28M112.97 96.79s24.08 4.29 35.35 41.36"/><path fill="#f5f0d6" stroke="#231f20" stroke-linejoin="round" stroke-width="1.23" d="M157.47 29.63c9.23 0 16.73-12.47 16.73-27.81a.85.85 0 1 1 1.7 0c0 15.33 7.51 27.81 16.73 27.81a.85.85 0 1 1 0 1.7c-9.23 0-16.73 12.47-16.73 27.81a.85.85 0 1 1-1.7 0c0-15.33-7.51-27.81-16.73-27.81a.85.85 0 1 1 0-1.7ZM187.32 83.27c5.98 0 10.85-8.09 10.85-18.02 0-.31.25-.55.55-.55s.55.25.55.55c0 9.94 4.87 18.02 10.85 18.02.31 0 .55.25.55.55 0 .31-.25.55-.55.55-5.98 0-10.85 8.09-10.85 18.02 0 .31-.25.55-.55.55s-.55-.25-.55-.55c0-9.94-4.87-18.02-10.85-18.02-.31 0-.55-.25-.55-.55 0-.31.25-.55.55-.55ZM67.41 213.96c-5.22 0-9.47-7.06-9.47-15.73 0-.27-.22-.48-.48-.48s-.48.22-.48.48c0 8.67-4.25 15.73-9.47 15.73-.27 0-.48.22-.48.48s.22.48.48.48c5.22 0 9.47 7.06 9.47 15.73 0 .27.22.48.48.48s.48-.22.48-.48c0-8.67 4.25-15.73 9.47-15.73.27 0 .48-.22.48-.48s-.22-.48-.48-.48Z"/></svg>