<svg xmlns="http://www.w3.org/2000/svg" viewBox="0 0 316 136"><g fill="#231f20"><path d="M57.05 128.26c.89-.62 1.53-1.42 1.92-2.4.91 0 1.6.55 2.07 1.66.15.32.22.79.22 1.42s-.21 1.34-.63 2.12c-.42.79-.97 1.48-1.66 2.07-1.5 1.21-3.21 1.81-5.13 1.81-1.82 0-3.38-.26-4.69-.78-2.09-.81-4.43-2-7.01-3.56-2.59-1.56-4.55-2.66-5.89-3.29-1.34-.63-2.6-1.13-3.78-1.49-2.04-.64-4.19-.96-6.43-.96-4.41 0-6.97 2.77-7.68 8.31-1.35 0-2.56-.51-3.62-1.51-.96-.94-1.44-2.02-1.44-3.25 0-3.23 1.8-5.39 5.39-6.5-6.08-2.63-10.3-7.54-12.66-14.73-.79-2.34-1.3-4.6-1.55-6.79-.25-2.19-.67-3.8-1.27-4.82-.6-1.02-1.46-1.8-2.57-2.34 2.14-1.01 3.4-3.08 3.78-6.22.38-3.14 1.25-6.07 2.6-8.81 1.35-2.73 3.08-5.07 5.17-7.01 4.41-4.09 9.71-6.13 15.91-6.13s11.65 1.9 15.84 5.69c4.36 3.94 6.92 9.45 7.68 16.54.32 2.95 1.57 4.94 3.77 5.94-2.14 1.06-3.39 3.11-3.73 6.15-.34 3.04-.91 5.79-1.7 8.23-.79 2.45-1.82 4.66-3.1 6.63-2.58 4.01-6.09 6.77-10.52 8.27.71.2 1.46.43 2.25.7l2.36.85c1.16.44 2.24.82 3.25 1.14 2.09 0 3.62-.7 4.58-2.1.57.17 1.07.47 1.51.89s.66.84.66 1.26-.04.77-.11 1.07c.91-.17 1.66-.55 2.23-1.14.58-.59.95-1.26 1.13-1.99.74.15 1.34.46 1.81.92.79.84 1.18 1.59 1.18 2.25 0 .86-.05 1.5-.15 1.92Zm-44.27-15.4c.37-.15.55-.41.55-.78 0-.54-.26-1.39-.78-2.55-1.3-2.98-1.96-8.42-1.96-16.32 0-5.76.69-10.66 2.07-14.7.17-.61.26-1.08.26-1.4s-.16-.53-.48-.63c-1.16 1.45-1.98 2.89-2.47 4.32-.91 2.61-1.64 6.14-2.18 10.6-.07.64-.8 1.24-2.18 1.81 1.38.61 2.1 1.24 2.18 1.88.89 7.63 2.02 12.73 3.4 15.29.47.91 1 1.73 1.59 2.47Zm11.15-19.64c-2.71 1.3-4.06 3.43-4.06 6.39v10.97c0 4.01 1.66 6.59 4.98 7.72.98.34 2.06.52 3.21.52s2.22-.17 3.19-.52c.97-.34 1.82-.86 2.53-1.55 1.48-1.43 2.21-3.48 2.21-6.17V99.61c0-2.95-1.33-5.08-3.99-6.39 2.66-1.23 3.99-3.21 3.99-5.94v-8.82c0-2.73-.8-4.86-2.4-6.39-1.5-1.4-3.36-2.1-5.57-2.1-3.77 0-6.28 1.58-7.53 4.73-.42 1.06-.63 2.31-.63 3.77v8.82c0 2.78 1.35 4.76 4.06 5.94ZM39.4 76.49c.69 2.07 1.03 5.63 1.03 10.67 0 2.86-.12 4.42-.37 4.69s-.49.49-.74.66c-.44.3-.92.53-1.44.7 1.48.66 2.25 1.3 2.33 1.92.25 2.41.37 4.5.37 6.26s-.02 3.18-.07 4.25c-.05 1.07-.12 2.06-.22 2.97-.2 1.94-.44 3.36-.74 4.25 1.92-.59 2.99-3.43 3.21-8.53.12-2.86.19-6.04.19-9.54s-.04-6.14-.11-7.9c-.07-1.76-.18-3.21-.33-4.34-.3-2.61-.91-4.42-1.85-5.43-.27-.3-.69-.5-1.26-.63ZM105.94 110.65c.44 1.08 1.34 2.12 2.7 3.1-.86.34-1.94 1.16-3.23 2.44a24.84 24.84 0 0 1-4.34 3.43c-1.6 1.01-3.19 1.82-4.76 2.44-2.86 1.13-5.94 1.7-9.25 1.7s-6.31-.39-9.01-1.18-4.93-1.86-6.7-3.21c-3.47-2.68-5.21-6.25-5.21-10.71V98.43c0-1.13-.23-1.97-.7-2.51-.74-.91-2.01-1.81-3.8-2.7 1.67-.76 2.76-1.44 3.25-2.03.84-.96 1.26-2.04 1.26-3.25V72.36c-.84-1.9-2.35-2.84-4.54-2.84-.84 0-1.53.21-2.07.63-.27-.37-.41-.79-.41-1.27s.14-.93.42-1.35c.28-.42.67-.78 1.16-1.07 1.13-.69 2.43-1.03 3.89-1.03s2.81.41 4.04 1.22c1.28-.81 2.71-1.22 4.28-1.22s3 .41 4.28 1.22c1.23-.81 2.39-1.22 3.47-1.22s1.97.09 2.66.28c.69.18 1.29.44 1.81.76 1.06.64 1.59 1.44 1.59 2.4 0 .49-.14.92-.41 1.29-.54-.42-1.23-.63-2.07-.63-2.19 0-3.7.95-4.54 2.84v15.58c0 1.21.26 2.1.78 2.7.81.96 2.05 1.82 3.73 2.59-1.8.89-2.94 1.61-3.43 2.18-.71.89-1.07 1.9-1.07 3.03v10.3c0 2.98 1.12 5.43 3.36 7.35 2.07 1.75 4.42 2.62 7.05 2.62s5.21-.85 7.35-2.55c2.19-1.72 3.29-3.81 3.29-6.28V98.11c0-1.08-.23-1.88-.7-2.4-.71-.76-1.98-1.59-3.8-2.47 1.7-.84 2.79-1.51 3.29-2.03.81-.86 1.22-1.82 1.22-2.88V71.9c-1.06-1.57-2.35-2.36-3.88-2.36s-2.65.21-3.36.63c-.27-.44-.41-1.05-.41-1.83s.38-1.45 1.14-2.03c.76-.58 1.76-.87 2.99-.87s2.33.32 3.29.96c.86-.64 1.85-.96 2.97-.96s2.11.33 2.97 1c.96-.66 2.02-1 3.17-1s2.09.3 2.79.9c.7.6 1.05 1.3 1.05 2.09s-.12 1.37-.37 1.74c-.71-.42-1.85-.63-3.42-.63s-2.82.79-3.78 2.36v16.43c0 1.08.23 1.87.7 2.36.74.76 2.13 1.61 4.17 2.55-2.17 1.06-3.46 1.8-3.88 2.21-.66.66-1 1.55-1 2.66v12.55Zm-34.34 2.22c.22-1.33.33-5.59.33-12.79s0-11.61-.02-13.22a167.3 167.3 0 0 0-.06-3.89c-.07-2.9-.35-4.66-.83-5.26-.48-.6-.93-1-1.35-1.2 0 8.57-.15 13.44-.44 14.62-.34.99-1.18 1.69-2.51 2.1 1.48.52 2.31 1.14 2.51 1.88.3 1.18.44 3.73.44 7.64s.06 6.23.17 6.94c.11.71.26 1.29.46 1.74.32.79.75 1.27 1.29 1.44ZM130.86 123.39c-1.62 0-3.06-.39-4.32-1.18-1.26.79-2.42 1.18-3.49 1.18s-1.95-.09-2.64-.28c-.69-.18-1.29-.44-1.81-.76-1.06-.64-1.59-1.44-1.59-2.4 0-.49.13-.92.41-1.29.54.42 1.23.63 2.07.63 2.19 0 3.7-.94 4.54-2.81V98.42c0-1.13-.23-1.97-.7-2.51-.74-.91-2.01-1.81-3.8-2.7 1.67-.76 2.76-1.44 3.25-2.03.84-.96 1.26-2.04 1.26-3.25V72.35c-.84-1.9-2.35-2.84-4.54-2.84-.84 0-1.53.21-2.07.63-.27-.37-.41-.79-.41-1.27s.14-.93.42-1.35c.28-.42.67-.78 1.16-1.07 1.13-.69 2.43-1.03 3.89-1.03s2.81.41 4.04 1.22c1.28-.81 2.74-1.22 4.39-1.22s3.15.48 4.5 1.44c2.61-.96 5.62-1.44 9.05-1.44 2.54 0 4.7.25 6.5.74l3.29.89c.39.1.78.15 1.14.15.69 0 1.03-.49 1.03-1.48 0-.25-.09-.66-.26-1.26.69-.12 1.56-.19 2.62-.19s1.96.35 2.7 1.05c.74.7 1.11 1.71 1.11 3.03s-.23 2.28-.7 2.9c.66.99 1 2.18 1 3.6s-.48 2.6-1.44 3.56c.3.74.44 1.46.44 2.16s-.12 1.34-.35 1.92a4.96 4.96 0 0 1-.87 1.46c-.69.71-1.39 1.07-2.1 1.07-1.03 0-1.97-.22-2.81-.66.3-.59.44-1.46.44-2.62 0-2.71-.68-5.08-2.03-7.13-1.85-2.81-4.62-4.21-8.31-4.21-1.87 0-3.56.46-5.08 1.37-1.51.91-2.58 2.21-3.19 3.91v14.29c.86.54 1.67.81 2.42.81s1.32-.01 1.7-.04c.38-.02.77-.07 1.16-.15 1.01-.15 1.78-.34 2.33-.59 1.03-.49 1.55-1.7 1.55-3.62 0-1.08-.26-1.92-.78-2.51.49-.34 1.11-.52 1.85-.52 1.65 0 2.84.66 3.58 1.99.27.47.41.98.41 1.55s-.15 1.27-.44 2.1c1.01 1.16 1.51 2.53 1.51 4.12s-.5 2.96-1.51 4.12c.3.84.44 1.59.44 2.27s-.14 1.32-.41 1.94c-.27.62-.6 1.11-1 1.48-.76.69-1.62 1.03-2.58 1.03-.69 0-1.31-.2-1.85-.59.52-.86.78-1.87.78-3.03 0-2.29-.63-3.7-1.88-4.25-1.11-.44-2.38-.66-3.8-.66s-2.59.26-3.47.78v18.46c1.43 2.51 4.18 3.77 8.27 3.77 4.63 0 7.78-1.43 9.45-4.28 1.94-3.27 2.92-6.78 2.92-10.52 0-1.08-.1-1.92-.3-2.51.61-.61 1.26-.92 1.92-.92s1.17.09 1.51.28c.34.19.65.41.92.68.59.66.89 1.34.89 2.03l-.22 1.81c0 .47.12.85.37 1.14.49.52.74 1 .74 1.46s-.15 1-.44 1.64c.57.32 1.08.79 1.53 1.42.46.63.68 1.27.68 1.94 0 1.4-.59 2.66-1.77 3.77.52.74.77 1.8.77 3.19s-.4 2.57-1.2 3.54-1.84 1.46-3.12 1.46c-.69 0-1.4-.07-2.14-.22.1-.54.15-1.08.15-1.62 0-1.13-.52-1.7-1.55-1.7-1.16 0-2.31.23-3.47.7-2.73 1.11-5.84 1.66-9.32 1.66s-6.44-.46-8.88-1.37c-1.28.91-2.77 1.37-4.47 1.37Zm-3.29-10.52c1.23-.47 1.91-2.08 2.03-4.84.15-2.76.22-6.57.22-11.45s0-8.12-.02-9.73a167.3 167.3 0 0 0-.06-3.89c-.07-2.9-.35-4.66-.83-5.26-.48-.6-.93-1-1.35-1.2 0 8.57-.15 13.44-.44 14.62-.34.99-1.18 1.69-2.51 2.1 1.48.52 2.31 1.14 2.51 1.88.3 1.18.44 5.5.44 12.96v4.8Zm9.3-.37c0 .07.01.14.04.19l-.04-.19ZM188.31 122.21c-1.26.79-2.68 1.18-4.28 1.18s-3.03-.39-4.28-1.18c-1.26.79-2.42 1.18-3.49 1.18s-1.95-.09-2.64-.28c-.69-.18-1.29-.44-1.81-.76-1.06-.64-1.59-1.44-1.59-2.4 0-.49.13-.92.41-1.29.54.42 1.23.63 2.07.63 2.19 0 3.7-.94 4.54-2.81V98.42c0-1.13-.23-1.97-.7-2.51-.74-.91-2.01-1.81-3.8-2.7 1.67-.76 2.76-1.44 3.25-2.03.84-.96 1.26-2.04 1.26-3.25V72.35c-.84-1.9-2.35-2.84-4.54-2.84-.84 0-1.53.21-2.07.63-.27-.37-.41-.79-.41-1.27s.14-.93.42-1.35c.28-.42.67-.78 1.16-1.07 1.13-.69 2.43-1.03 3.89-1.03s2.81.41 4.04 1.22c1.28-.81 2.71-1.22 4.28-1.22s3 .41 4.28 1.22c2.78-1.06 5.86-1.59 9.25-1.59s6.22.31 8.51.92c2.29.62 4.26 1.49 5.91 2.62 3.32 2.29 5.39 5.48 6.2 9.56.32 1.82 1.49 3.2 3.51 4.14-1.92 1.08-3.17 2.81-3.77 5.17-1.21 4.87-4.22 7.91-9.05 9.12 2.49.66 4.52 2.03 6.09 4.1 1.62 2.14 2.44 4.67 2.44 7.57v3.69c0 3.54 1.14 5.83 3.43 6.87.69.32 1.44.48 2.25.48s1.49-.21 2.03-.63c.27.37.41.79.41 1.27s-.12.93-.37 1.35c-.25.42-.58.78-1 1.07-.89.69-1.92 1.03-3.1 1.03s-2.34-.32-3.47-.96c-2.07 1.13-4 1.24-5.8.33-.69.42-1.42.63-2.18.63s-1.49-.17-2.2-.52c-.7-.34-1.32-.91-1.86-1.7-1.16-1.7-1.74-4.31-1.74-7.83v-2.73c0-5.69-1.63-9.38-4.87-11.08-1.08-.57-2.35-.85-3.8-.85h-4.32v17.98c.66 1.75 1.93 2.62 3.8 2.62.84 0 1.53-.21 2.07-.63.27.37.41.91.41 1.63s-.39 1.41-1.16 2.09c-.77.68-1.94 1.02-3.49 1.02s-2.93-.39-4.13-1.18Zm-7.53-9.34c1.23-.47 1.91-2.08 2.03-4.84.15-2.76.22-6.57.22-11.45s0-8.12-.02-9.73a167.3 167.3 0 0 0-.06-3.89c-.07-2.9-.35-4.66-.83-5.26-.48-.6-.93-1-1.35-1.2 0 8.57-.15 13.44-.44 14.62-.34.99-1.18 1.69-2.51 2.1 1.48.52 2.31 1.14 2.51 1.88.3 1.18.44 5.5.44 12.96v4.8Zm17.13-42.9c-4.73 0-7.09 1.83-7.09 5.5v15.1c0 1.28.5 2.14 1.51 2.59.96.42 2.38.63 4.26.63s3.2-.1 3.95-.31 1.4-.57 1.94-1.09c1.11-1.06 1.66-2.83 1.66-5.32V76.29c0-3.08-1.28-5.05-3.84-5.91-.76-.27-1.56-.41-2.4-.41Zm8.34 32.79c.98 1.11 1.48 2.46 1.48 4.06v4.87c0 4.09.81 6.27 2.44 6.54.44.07.87.06 1.29-.04-.89-1.38-1.33-2.83-1.33-4.36v-5.17c0-1.94-.27-3.32-.81-4.14-.94-1.38-1.96-1.97-3.06-1.77Zm.37-30.42c.76 1.72 1.14 4.48 1.14 8.27 0 6.52-.31 10.43-.92 11.7 1.35-.27 2.33-2.08 2.92-5.43l.3-1.51c.27-1.6 1.06-2.62 2.36-3.06-.96-.32-1.58-.7-1.85-1.14-.3-.52-.56-1.4-.79-2.64-.23-1.24-.47-2.25-.72-3.01-.25-.76-.5-1.37-.78-1.81-.47-.79-1.02-1.24-1.66-1.37ZM255.07 122.21c-1.26.79-2.68 1.18-4.28 1.18s-3.03-.39-4.28-1.18c-1.26.79-2.42 1.18-3.49 1.18s-1.97-.09-2.7-.28c-.73-.18-1.37-.44-1.94-.76-1.18-.64-1.77-1.44-1.77-2.4 0-.49.14-.92.41-1.29.54.42 1.26.63 2.16.63s1.81-.23 2.73-.7c.92-.47 1.62-1.19 2.09-2.18v-7.27c0-1.13-.22-1.97-.66-2.51-.79-.96-2.07-1.87-3.84-2.73 1.65-.76 2.73-1.43 3.25-1.99.84-.96 1.26-2.04 1.26-3.25v-1.33l-14.84-25.7c-1.43-1.28-2.7-1.92-3.8-1.92s-1.98.21-2.62.63c-.27-.2-.41-.57-.41-1.11s.09-1.04.26-1.5c.17-.46.44-.85.81-1.2.79-.74 1.93-1.11 3.43-1.11s2.83.43 3.99 1.29c1.23-.86 2.69-1.29 4.38-1.29s3.07.42 4.15 1.26c1.3-.84 2.52-1.26 3.66-1.26s2.04.08 2.73.24c.69.16 1.29.4 1.81.72 1.11.64 1.69 1.53 1.74 2.66 0 .69-.14 1.12-.41 1.29-.66-.42-1.33-.63-1.99-.63-1.43 0-2.58.26-3.47.77l11.04 21.19 10.49-21.23c-1.01-.61-2.17-.92-3.49-.92s-2.33.21-3.05.63c-.25-.37-.37-.95-.37-1.74s.33-1.48 1-2.09c.66-.6 1.61-.9 2.84-.9s2.29.32 3.18.96c.79-.64 1.75-.96 2.88-.96s2.08.27 2.84.81c1.08-.54 2.17-.81 3.25-.81s1.95.35 2.6 1.05c.65.7.98 1.61.98 2.71 0 .57-.14.95-.41 1.14-.64-.42-1.43-.63-2.36-.63-1.62 0-3.06.44-4.32 1.33L257.61 96.6v2.03c0 1.21.26 2.1.78 2.7.84.94 2.08 1.79 3.73 2.55-1.77.86-2.9 1.59-3.4 2.18-.74.91-1.11 1.93-1.11 3.06v7.27c.44.99 1.13 1.71 2.05 2.18.92.47 1.84.7 2.75.7s1.64-.21 2.18-.63c.27.37.41.79.41 1.27s-.16.93-.48 1.35c-.32.42-.75.78-1.29 1.07-1.23.69-2.58 1.03-4.04 1.03s-2.82-.39-4.08-1.18Zm-7.53-9.34c1.3-.49 2.02-2.42 2.14-5.8.02-1.03.04-2.09.04-3.18v-6.17c0-1.18-.22-2.15-.66-2.92l-7.57-13.7c-1.06-1.85-1.82-2.99-2.29-3.43-.74-.69-1.62-1.08-2.66-1.18l11.08 20.53v1.81c0 1.45-.1 2.45-.3 2.99-.3.94-1.21 1.64-2.73 2.1 1.65.61 2.58 1.37 2.81 2.25.17.69.26 1.49.26 2.42s-.02 1.73-.06 2.42c-.04.69-.06 1.31-.06 1.85ZM308.82 109.3h-23.31c-3.61 0-6.54-2.94-6.54-6.54V90.72c0-3.61 2.94-6.54 6.54-6.54h23.31c3.61 0 6.54 2.94 6.54 6.54v12.04c0 3.61-2.94 6.54-6.54 6.54Zm-23.31-24.46c-3.24 0-5.87 2.63-5.87 5.87v12.04c0 3.24 2.63 5.87 5.87 5.87h23.31c3.24 0 5.87-2.63 5.87-5.87V90.71c0-3.24-2.63-5.87-5.87-5.87h-23.31Z"/><path d="M286.51 99.31c.24-.15.4-.28.46-.37.06-.09.11-.18.15-.25.1-.2.26-.35.46-.46.2-.11.42-.17.66-.17.49 0 .84.2 1.06.62.17.32.38.54.62.64-.07.04-.13.07-.18.1-.06.03-.11.07-.16.11-.1.08-.2.21-.3.38-.1.17-.24.32-.43.45s-.39.19-.61.19-.44-.07-.65-.19c-.21-.13-.37-.29-.48-.49-.13-.22-.24-.36-.34-.42-.1-.06-.19-.11-.27-.14Zm1.45.4s-.05-.1-.06-.16c-.02-.06-.02-.18-.02-.35s.08-.38.25-.63a.554.554 0 0 0-.46.23c-.06.07-.1.13-.12.17a.77.77 0 0 1-.09.13c-.08.12-.15.2-.2.22.07.04.13.1.19.19s.13.18.21.27c.12.14.27.21.47.21-.03-.05-.05-.09-.08-.13a.913.913 0 0 1-.08-.13ZM291.86 100.64c-.32-.29-.47-.65-.47-1.07 0-.64.38-1.16 1.13-1.57-.49-.34-.85-.89-1.08-1.64-.07-.23-.15-.39-.22-.47-.11-.13-.3-.26-.56-.39.22-.1.39-.23.5-.39.12-.16.22-.36.3-.62.09-.25.2-.5.36-.73.15-.23.35-.44.6-.61.54-.38 1.23-.56 2.08-.56.27 0 .55.03.85.09.06-.48.27-.88.64-1.21.36-.34.78-.5 1.26-.5.56 0 1.04.15 1.42.44.21.16.42.22.63.18.02.35-.12.58-.41.67-.05.59-.3.89-.77.89-.18 0-.3-.01-.33-.04.07-.06.1-.13.1-.22s-.04-.17-.11-.23c-.09.17-.3.26-.62.26-.18 0-.31-.08-.41-.25.17-.05.3-.13.39-.24s.14-.21.14-.3c0-.24-.13-.36-.38-.36-.49 0-.77.38-.86 1.14.79.34 1.3.88 1.52 1.61.14.49.41.83.8 1-.34.17-.57.36-.67.57-.04.08-.08.18-.12.29-.24.74-.61 1.29-1.11 1.64s-1.15.53-1.94.53c-.5 0-.94-.06-1.31-.18-.14.09-.22.19-.22.3a.507.507 0 0 0 .31.49c.22.12.65.22 1.27.31.28.06.58-.13.88-.55.02.22.07.39.15.5.08.11.17.17.28.19 1.21.18 1.99.57 2.34 1.18.12.2.18.47.18.79s-.1.63-.31.94c-.21.3-.48.56-.83.78-.73.44-1.62.66-2.67.66-1.24 0-2.19-.2-2.84-.61-.56-.35-.85-.81-.85-1.36 0-.37.19-.71.56-1.04.12-.11.26-.2.42-.28Zm.63-3.35c.09-.07.13-.14.13-.23 0-.11-.01-.22-.05-.33-.12-.4-.18-.81-.18-1.24s.06-.83.18-1.23c.03-.11.05-.19.05-.25v-.16s-.02-.07-.05-.1c-.18.22-.31.47-.39.75-.08.28-.15.53-.19.74-.02.07-.14.15-.37.25.23.11.35.2.37.26l.13.55c.11.46.24.79.37.99Zm.02 3.77c-.31.14-.47.39-.47.76 0 .3.22.57.67.81.5.27 1.15.41 1.95.41.98 0 1.61-.17 1.91-.5.08-.09.13-.19.13-.29s-.05-.19-.15-.27c-.1-.08-.23-.14-.38-.19-.23-.08-.6-.15-1.09-.2-.24-.03-.54.15-.89.53 0-.24-.04-.42-.12-.53-.08-.11-.16-.17-.24-.18a5.44 5.44 0 0 1-1.31-.33Zm-.35-1.44s-.06.1-.06.17c.02.47.69.83 2.02 1.07.15.03.26.2.33.5.02-.1.11-.18.26-.24.15-.06.25-.09.3-.09.66.08 1.11.15 1.34.22.41.13.71.31.9.56.05-.06.08-.14.08-.24s-.05-.19-.14-.29c-.1-.1-.25-.18-.47-.26-.38-.14-.88-.24-1.53-.31-.64-.07-1.09-.14-1.35-.2s-.5-.13-.72-.21c-.48-.19-.79-.42-.95-.69Zm1.72-2.29c.1.14.19.22.29.26.1.04.21.06.34.06s.24-.02.34-.06a.5.5 0 0 0 .24-.19c.13-.18.19-.48.19-.9v-1.82c0-.42-.05-.7-.14-.84-.1-.13-.19-.22-.29-.26-.1-.04-.21-.06-.34-.06s-.24.02-.34.06c-.1.04-.17.1-.24.19-.13.18-.2.49-.2.91v1.82c0 .42.05.7.14.84Zm2.03-.05c.2-.07.32-.29.35-.65.03-.34.05-.72.05-1.15 0-.66-.02-1.08-.05-1.26-.05-.24-.17-.4-.34-.48v3.53Z"/><path d="M299.89 100.64c-.32-.29-.47-.65-.47-1.07 0-.64.38-1.16 1.13-1.57-.49-.34-.85-.89-1.08-1.64-.07-.23-.15-.39-.22-.47-.11-.13-.3-.26-.56-.39.22-.1.39-.23.5-.39.12-.16.22-.36.3-.62.09-.25.2-.5.36-.73.15-.23.35-.44.6-.61.54-.38 1.23-.56 2.08-.56.27 0 .55.03.85.09.06-.48.27-.88.64-1.21.36-.34.78-.5 1.26-.5.56 0 1.04.15 1.42.44.21.16.42.22.63.18.02.35-.12.58-.41.67-.05.59-.3.89-.77.89-.18 0-.3-.01-.33-.04.07-.06.1-.13.1-.22s-.04-.17-.11-.23c-.09.17-.3.26-.62.26-.18 0-.31-.08-.41-.25.17-.05.3-.13.39-.24s.14-.21.14-.3c0-.24-.13-.36-.38-.36-.49 0-.77.38-.86 1.14.79.34 1.3.88 1.52 1.61.14.49.41.83.8 1-.34.17-.57.36-.67.57-.04.08-.08.18-.12.29-.24.74-.61 1.29-1.11 1.64s-1.15.53-1.94.53c-.5 0-.94-.06-1.31-.18-.14.09-.22.19-.22.3a.507.507 0 0 0 .31.49c.22.12.65.22 1.27.31.28.06.58-.13.88-.55.02.22.07.39.15.5.08.11.17.17.28.19 1.21.18 1.99.57 2.34 1.18.12.2.18.47.18.79s-.1.63-.31.94c-.21.3-.48.56-.83.78-.73.44-1.62.66-2.67.66-1.24 0-2.19-.2-2.84-.61-.56-.35-.85-.81-.85-1.36 0-.37.19-.71.56-1.04.12-.11.26-.2.42-.28Zm.63-3.35c.09-.07.13-.14.13-.23 0-.11-.01-.22-.05-.33-.12-.4-.18-.81-.18-1.24s.06-.83.18-1.23c.03-.11.05-.19.05-.25v-.16s-.02-.07-.05-.1c-.18.22-.31.47-.39.75-.08.28-.15.53-.19.74-.02.07-.14.15-.37.25.23.11.35.2.37.26l.13.55c.11.46.24.79.37.99Zm.02 3.77c-.31.14-.47.39-.47.76 0 .3.22.57.67.81.5.27 1.15.41 1.95.41.98 0 1.61-.17 1.91-.5.08-.09.13-.19.13-.29s-.05-.19-.15-.27c-.1-.08-.23-.14-.38-.19-.23-.08-.6-.15-1.09-.2-.24-.03-.54.15-.89.53 0-.24-.04-.42-.12-.53-.08-.11-.16-.17-.24-.18a5.44 5.44 0 0 1-1.31-.33Zm-.35-1.44s-.06.1-.06.17c.02.47.69.83 2.02 1.07.15.03.26.2.33.5.02-.1.11-.18.26-.24.15-.06.25-.09.3-.09.66.08 1.11.15 1.34.22.41.13.71.31.9.56.05-.06.08-.14.08-.24s-.05-.19-.14-.29c-.1-.1-.25-.18-.47-.26-.38-.14-.88-.24-1.53-.31-.64-.07-1.09-.14-1.35-.2s-.5-.13-.72-.21c-.48-.19-.79-.42-.95-.69Zm1.72-2.29c.1.14.19.22.29.26.1.04.21.06.34.06s.24-.02.34-.06a.5.5 0 0 0 .24-.19c.13-.18.19-.48.19-.9v-1.82c0-.42-.05-.7-.14-.84-.1-.13-.19-.22-.29-.26-.1-.04-.21-.06-.34-.06s-.24.02-.34.06c-.1.04-.17.1-.24.19-.13.18-.2.49-.2.91v1.82c0 .42.05.7.14.84Zm2.03-.05c.2-.07.32-.29.35-.65.03-.34.05-.72.05-1.15 0-.66-.02-1.08-.05-1.26-.05-.24-.17-.4-.34-.48v3.53Z"/></g><path fill="#231f20" d="m124.71-.12 20.25 20.25 20.4-20.41-40.65.16z"/><g fill="#231f20"><path d="M24.9 38.59V37.4h7.83v1.19H24.9Zm3.25 8.42v-9.33h1.32v9.33h-1.32ZM34.28 47.02v-9.61h1.3v9.61h-1.3Zm.89-4.38v-1.19h5.62v1.19h-5.62Zm5.32 4.38v-9.61h1.3v9.61h-1.3ZM44.06 47.02v-9.61h1.3v9.61h-1.3Zm.89-8.42v-1.19h5.44v1.19h-5.44Zm0 4.09v-1.15h5.06v1.15h-5.06Zm0 4.33v-1.19h5.51v1.19h-5.51ZM59.47 47.15c-.68 0-1.32-.13-1.91-.38s-1.11-.61-1.55-1.07-.79-.99-1.04-1.59c-.25-.6-.37-1.24-.37-1.93s.12-1.34.37-1.93c.25-.6.59-1.12 1.03-1.57s.95-.8 1.54-1.05c.59-.25 1.22-.37 1.9-.37s1.32.12 1.9.37c.59.25 1.1.6 1.54 1.05.44.45.79.98 1.04 1.58s.37 1.25.37 1.94-.12 1.33-.37 1.93-.59 1.13-1.03 1.58-.95.81-1.54 1.06c-.59.25-1.22.38-1.89.38Zm-.03-1.25c.68 0 1.29-.16 1.81-.48s.94-.76 1.24-1.32.45-1.2.45-1.92c0-.54-.08-1.03-.26-1.47-.17-.45-.41-.84-.73-1.17-.31-.33-.68-.59-1.11-.77s-.9-.27-1.41-.27c-.68 0-1.29.16-1.81.47-.52.31-.93.75-1.23 1.3-.3.55-.45 1.19-.45 1.91 0 .54.08 1.03.26 1.49s.41.85.72 1.18c.31.33.68.58 1.11.77.43.18.9.28 1.41.28ZM66.09 47.02v-9.61h1.3v9.61h-1.3Zm.89-8.42v-1.19h5.25v1.19h-5.25Zm0 4.2v-1.19h5.01v1.19h-5.01ZM73.93 47.02v-9.61h1.3v9.61h-1.3Zm.89-8.42v-1.19h5.25v1.19h-5.25Zm0 4.2v-1.19h5.01v1.19h-5.01ZM81.77 47.02v-9.61h1.3v9.61h-1.3ZM89.71 47.15c-.69 0-1.33-.13-1.92-.38s-1.11-.61-1.54-1.06c-.44-.45-.78-.98-1.02-1.58s-.36-1.24-.36-1.93.12-1.34.36-1.94.58-1.12 1.01-1.57c.43-.45.95-.8 1.54-1.05s1.23-.38 1.91-.38c.77 0 1.44.13 2.01.39.57.26 1.08.61 1.52 1.05l-.9.9c-.3-.34-.68-.61-1.12-.8a3.8 3.8 0 0 0-1.51-.29c-.5 0-.96.09-1.38.27s-.79.44-1.11.77c-.31.33-.56.73-.73 1.18-.17.45-.26.95-.26 1.48s.08 1.03.26 1.48c.17.45.41.84.73 1.18.31.33.68.59 1.11.77.42.18.89.27 1.4.27.6 0 1.12-.1 1.57-.3.44-.2.82-.47 1.12-.81l.9.9c-.44.45-.96.81-1.56 1.07-.6.26-1.27.39-2.02.39ZM94.87 47.02v-9.61h1.3v9.61h-1.3ZM97.73 47.02l3.95-9.61h.94l3.92 9.61h-1.41l-3.24-8.13h.5l-3.25 8.13h-1.4Zm1.88-2.17v-1.14h5.06v1.14h-5.06ZM107.98 47.02v-9.61h1.3v9.61h-1.3Zm.89 0v-1.19h5.15v1.19h-5.15ZM118.38 47.02v-9.61h1.3v9.61h-1.3Zm.87-4.18v-1.09h2.6c.56 0 1-.14 1.29-.43.3-.29.45-.67.45-1.16 0-.46-.15-.84-.45-1.15-.3-.3-.73-.46-1.28-.46h-2.62v-1.14h2.66c.61 0 1.14.12 1.59.35.45.24.8.56 1.05.96.24.41.37.87.37 1.4s-.12 1.02-.37 1.43c-.25.41-.59.72-1.05.95-.45.23-.98.34-1.59.34h-2.66Zm4.67 4.18-3.49-4.31 1.23-.43 3.91 4.74h-1.65ZM126.91 47.02v-9.61h1.3v9.61h-1.3Zm.89-8.42v-1.19h5.44v1.19h-5.44Zm0 4.09v-1.15h5.06v1.15h-5.06Zm0 4.33v-1.19h5.51v1.19h-5.51ZM134.36 47.02l3.95-9.61h.94l3.92 9.61h-1.41l-3.24-8.13h.5l-3.25 8.13h-1.4Zm1.88-2.17v-1.14h5.06v1.14h-5.06ZM148.37 47.15c-.69 0-1.33-.13-1.92-.38-.59-.25-1.11-.61-1.54-1.06s-.78-.98-1.02-1.58c-.24-.6-.36-1.24-.36-1.93s.12-1.34.36-1.94c.24-.6.58-1.12 1.01-1.57.43-.45.95-.8 1.54-1.05s1.23-.38 1.91-.38c.77 0 1.44.13 2.01.39.57.26 1.08.61 1.52 1.05l-.9.9c-.3-.34-.68-.61-1.12-.8a3.8 3.8 0 0 0-1.51-.29c-.5 0-.96.09-1.39.27s-.79.44-1.11.77c-.31.33-.56.73-.73 1.18s-.26.95-.26 1.48.08 1.03.26 1.48.41.84.73 1.18c.31.33.68.59 1.11.77.42.18.89.27 1.4.27.6 0 1.12-.1 1.56-.3.44-.2.82-.47 1.12-.81l.9.9c-.44.45-.96.81-1.56 1.07-.6.26-1.27.39-2.02.39ZM152.59 38.59V37.4h7.83v1.19h-7.83Zm3.25 8.42v-9.33h1.32v9.33h-1.32ZM169 47.15c-.68 0-1.32-.13-1.91-.38-.59-.25-1.11-.61-1.55-1.07s-.79-.99-1.04-1.59c-.25-.6-.37-1.24-.37-1.93s.12-1.34.37-1.93c.25-.6.59-1.12 1.03-1.57s.95-.8 1.54-1.05c.59-.25 1.22-.37 1.9-.37s1.32.12 1.91.37c.59.25 1.1.6 1.54 1.05s.79.98 1.03 1.58c.24.6.37 1.25.37 1.94s-.12 1.33-.37 1.93c-.25.6-.59 1.13-1.03 1.58s-.95.81-1.54 1.06c-.59.25-1.22.38-1.89.38Zm-.03-1.25c.68 0 1.29-.16 1.81-.48.53-.32.94-.76 1.24-1.32.3-.56.45-1.2.45-1.92 0-.54-.09-1.03-.26-1.47a3.358 3.358 0 0 0-1.85-1.94c-.43-.18-.9-.27-1.41-.27-.68 0-1.29.16-1.81.47-.53.31-.94.75-1.24 1.3s-.45 1.19-.45 1.91c0 .54.09 1.03.26 1.49a3.35 3.35 0 0 0 1.84 1.95c.43.19.9.28 1.41.28Zm4.63 1.79-4.5-4.5.84-.84 4.49 4.5-.83.84ZM179.54 47.15c-.71 0-1.35-.16-1.91-.49-.56-.32-1.01-.76-1.34-1.32s-.49-1.19-.49-1.89V37.4h1.32v6.03c0 .51.11.95.32 1.32.21.37.5.66.87.86.36.2.78.3 1.24.3s.87-.1 1.23-.3.64-.49.84-.86c.21-.37.31-.8.31-1.3v-6.04h1.32v6.07c0 .7-.16 1.33-.48 1.88-.32.55-.76.99-1.32 1.32-.55.32-1.19.49-1.9.49ZM185.39 47.02v-9.61h1.3v9.61h-1.3Zm.89-8.42v-1.19h5.44v1.19h-5.44Zm0 4.09v-1.15h5.06v1.15h-5.06Zm0 4.33v-1.19h5.51v1.19h-5.51ZM193.56 47.02v-9.61h1.3v9.61h-1.3Zm.87-4.18v-1.09h2.6c.56 0 1-.14 1.29-.43.3-.29.45-.67.45-1.16 0-.46-.15-.84-.45-1.15-.3-.3-.73-.46-1.28-.46h-2.62v-1.14h2.66c.61 0 1.14.12 1.59.35.45.24.8.56 1.05.96.24.41.37.87.37 1.4s-.12 1.02-.37 1.43c-.25.41-.59.72-1.05.95-.45.23-.98.34-1.59.34h-2.66Zm4.67 4.18-3.49-4.31 1.23-.43 3.91 4.74h-1.65ZM204.53 43.11l-3.78-5.71h1.52l3.05 4.67h-.68l3.06-4.67h1.48l-3.81 5.71h-.85Zm-.21 3.91v-4.76h1.3v4.76h-1.3ZM217.55 47.15c-.69 0-1.33-.13-1.92-.38-.59-.25-1.11-.61-1.54-1.06s-.78-.98-1.02-1.58c-.24-.6-.36-1.24-.36-1.93s.12-1.34.36-1.94c.24-.6.58-1.12 1.01-1.57.43-.45.95-.8 1.54-1.05s1.23-.38 1.91-.38c.77 0 1.44.13 2.01.39.57.26 1.08.61 1.52 1.05l-.9.9c-.3-.34-.68-.61-1.12-.8a3.8 3.8 0 0 0-1.51-.29c-.5 0-.96.09-1.39.27s-.79.44-1.11.77c-.31.33-.56.73-.73 1.18s-.26.95-.26 1.48.08 1.03.26 1.48.41.84.73 1.18c.31.33.68.59 1.11.77.42.18.89.27 1.4.27.6 0 1.12-.1 1.56-.3.44-.2.82-.47 1.12-.81l.9.9c-.44.45-.96.81-1.56 1.07-.6.26-1.27.39-2.02.39ZM226.7 47.15c-.68 0-1.32-.13-1.91-.38s-1.11-.61-1.55-1.07-.79-.99-1.04-1.59c-.25-.6-.37-1.24-.37-1.93s.12-1.34.37-1.93c.25-.6.59-1.12 1.03-1.57s.95-.8 1.54-1.05c.59-.25 1.22-.37 1.9-.37s1.32.12 1.9.37c.59.25 1.1.6 1.54 1.05.44.45.79.98 1.04 1.58s.37 1.25.37 1.94-.12 1.33-.37 1.93-.59 1.13-1.03 1.58-.95.81-1.54 1.06c-.59.25-1.22.38-1.89.38Zm-.03-1.25c.68 0 1.29-.16 1.81-.48s.94-.76 1.24-1.32.45-1.2.45-1.92c0-.54-.08-1.03-.26-1.47-.17-.45-.41-.84-.73-1.17-.31-.33-.68-.59-1.11-.77s-.9-.27-1.41-.27c-.68 0-1.29.16-1.81.47-.52.31-.93.75-1.23 1.3-.3.55-.45 1.19-.45 1.91 0 .54.08 1.03.26 1.49s.41.85.72 1.18c.31.33.68.58 1.11.77.43.18.9.28 1.41.28ZM236.94 47.15c-.71 0-1.35-.16-1.91-.49-.56-.32-1.01-.76-1.34-1.32s-.49-1.19-.49-1.89V37.4h1.32v6.03c0 .51.11.95.32 1.32.21.37.5.66.87.86.36.2.78.3 1.24.3s.87-.1 1.23-.3.64-.49.84-.86c.21-.37.31-.8.31-1.3v-6.04h1.32v6.07c0 .7-.16 1.33-.48 1.88-.32.55-.76.99-1.32 1.32-.55.32-1.19.49-1.9.49ZM242.78 47.02v-9.61h1.3v9.61h-1.3Zm.87-4.18v-1.09h2.6c.56 0 1-.14 1.29-.43.3-.29.45-.67.45-1.16 0-.46-.15-.84-.45-1.15-.3-.3-.73-.46-1.28-.46h-2.62v-1.14h2.66c.61 0 1.14.12 1.59.35.45.24.8.56 1.05.96.24.41.37.87.37 1.4s-.12 1.02-.37 1.43c-.25.41-.59.72-1.05.95-.45.23-.98.34-1.59.34h-2.66Zm4.67 4.18-3.49-4.31 1.23-.43 3.91 4.74h-1.65ZM253.68 47.15c-.75 0-1.39-.14-1.92-.42-.54-.28-1.01-.68-1.43-1.21l.89-.89c.3.42.66.75 1.05.96.4.22.89.33 1.47.33s1.03-.12 1.38-.37c.35-.25.52-.59.52-1.03 0-.36-.08-.65-.26-.87s-.39-.4-.67-.55c-.28-.14-.58-.27-.91-.38-.33-.11-.67-.23-1-.37-.33-.13-.64-.3-.92-.51-.28-.2-.51-.46-.67-.78-.17-.32-.25-.73-.25-1.23 0-.54.13-1.01.4-1.39.26-.38.62-.68 1.08-.89s.97-.31 1.54-.31c.63 0 1.19.12 1.69.37s.9.57 1.22.96l-.89.89c-.29-.33-.59-.58-.92-.75-.33-.17-.7-.25-1.13-.25-.52 0-.93.11-1.23.34-.3.23-.46.54-.46.95 0 .32.08.58.26.78.17.2.39.37.67.5s.58.27.92.38c.34.12.67.24 1 .38.33.14.64.31.91.53.28.21.5.49.67.82s.26.76.26 1.27c0 .85-.29 1.51-.88 1.99-.59.48-1.38.72-2.39.72ZM258.71 47.02v-9.61h1.3v9.61h-1.3Zm.89-8.42v-1.19h5.44v1.19h-5.44Zm0 4.09v-1.15h5.06v1.15h-5.06Zm0 4.33v-1.19h5.51v1.19h-5.51Z"/></g></svg>