<?xml version="1.0" standalone="no"?>
<!DOCTYPE svg PUBLIC "-//W3C//DTD SVG 20010904//EN"
 "http://www.w3.org/TR/2001/REC-SVG-20010904/DTD/svg10.dtd">
<svg version="1.0" xmlns="http://www.w3.org/2000/svg"
 width="260.000000pt" height="260.000000pt" viewBox="0 0 260.000000 260.000000"
 preserveAspectRatio="xMidYMid meet">
<metadata>
Created by potrace 1.11, written by Peter Selinger 2001-2013
</metadata>
<g transform="translate(0.000000,260.000000) scale(0.100000,-0.100000)"
fill="#000000" stroke="none">
<path d="M1257 2584 c-1 -1 -42 -4 -90 -8 -49 -3 -92 -8 -96 -10 -4 -3 -19 -7
-34 -10 -137 -25 -313 -99 -454 -192 -103 -68 -259 -220 -331 -323 -86 -122
-171 -307 -198 -427 -34 -157 -46 -327 -30 -464 28 -259 154 -531 332 -721
179 -192 378 -311 632 -378 34 -9 54 -13 137 -28 17 -2 85 -6 152 -8 415 -11
810 183 1059 520 127 172 220 401 242 599 9 77 8 251 -1 334 -16 135 -76 318
-147 448 -73 132 -220 308 -320 383 -19 14 -37 28 -40 32 -11 13 -99 68 -161
101 -105 56 -260 111 -378 133 -62 11 -265 26 -274 19z"/>
</g>
</svg>
